<svg width="48" height="49" viewBox="0 0 48 49" fill="none" xmlns="http://www.w3.org/2000/svg">
<path d="M0 13.25C0 6.0703 5.8203 0.25 13 0.25H35C42.1797 0.25 48 6.0703 48 13.25V35.25C48 42.4297 42.1797 48.25 35 48.25H13C5.8203 48.25 0 42.4297 0 35.25V13.25Z" fill="white"/>
<path fill-rule="evenodd" clip-rule="evenodd" d="M14.4827 6.99817C14.9965 6.94355 15.3687 6.48399 15.3139 5.97171C15.2591 5.45942 14.7981 5.08842 14.2843 5.14303L12.3734 5.34615C11.3944 5.4502 10.6092 5.53366 9.97152 5.64893C9.31452 5.76768 8.75152 5.93 8.22862 6.22217C7.37952 6.69654 6.67572 7.39166 6.19222 8.23345C5.89442 8.75203 5.72672 9.31164 5.60202 9.96505C5.48102 10.5992 5.39082 11.3805 5.27832 12.3544L5.27352 12.3964L5.08582 14.2567C5.03412 14.7693 5.40902 15.2266 5.92322 15.2781C6.43732 15.3297 6.89612 14.9559 6.94782 14.4433L7.13402 12.5964C7.25112 11.5827 7.33402 10.8714 7.44042 10.3137C7.54482 9.76625 7.66142 9.42994 7.81622 9.16048C8.13112 8.61206 8.58982 8.15896 9.14342 7.84966C9.41562 7.69761 9.75452 7.5842 10.3053 7.48465C10.8677 7.383 11.5847 7.3062 12.6071 7.19752L14.4827 6.99817ZM32.686 5.97172C32.6312 6.484 33.0033 6.94357 33.5172 6.99818L35.3927 7.19754C36.4152 7.30622 37.1322 7.38302 37.6946 7.48467C38.2454 7.58422 38.5843 7.69763 38.8565 7.84968C39.41 8.15898 39.8687 8.61208 40.1837 9.1605C40.3385 9.42996 40.455 9.76627 40.5595 10.3137C40.6659 10.8714 40.7487 11.5827 40.8658 12.5964L41.0521 14.4434C41.1038 14.9559 41.5625 15.3297 42.0767 15.2782C42.5909 15.2266 42.9658 14.7693 42.9141 14.2567L42.7264 12.3964L42.7216 12.3544C42.6091 11.3805 42.5188 10.5992 42.3979 9.96506C42.2732 9.31166 42.1055 8.75205 41.8077 8.23347C41.3242 7.39168 40.6203 6.69655 39.7713 6.22219C39.2484 5.93002 38.6854 5.7677 38.0284 5.64895C37.3907 5.53368 36.6055 5.45022 35.6265 5.34617L33.7156 5.14305C33.2017 5.08843 32.7408 5.45944 32.686 5.97172ZM32.686 42.0283C32.6312 41.516 33.0033 41.0565 33.5172 41.0018L35.3927 40.8025C36.4152 40.6938 37.1322 40.617 37.6946 40.5154C38.2454 40.4158 38.5843 40.3024 38.8565 40.1503C39.41 39.841 39.8687 39.3879 40.1837 38.8395C40.3385 38.5701 40.455 38.2338 40.5595 37.6864C40.6659 37.1286 40.7487 36.4173 40.8658 35.4036L41.0521 33.5567C41.1038 33.0441 41.5625 32.6703 42.0767 32.7218C42.5909 32.7734 42.9658 33.2307 42.9141 33.7433L42.7264 35.6036L42.7216 35.6456C42.6091 36.6195 42.5188 37.4008 42.3979 38.035C42.2732 38.6884 42.1055 39.248 41.8077 39.7666C41.3242 40.6084 40.6203 41.3035 39.7713 41.7778C39.2484 42.07 38.6854 42.2323 38.0284 42.3511C37.3907 42.4663 36.6055 42.5498 35.6265 42.6539L33.7156 42.857C33.2017 42.9116 32.7408 42.5406 32.686 42.0283ZM15.3139 42.0283C15.3687 41.516 14.9965 41.0565 14.4827 41.0018L12.6072 40.8025C11.5847 40.6938 10.8677 40.617 10.3053 40.5154C9.75452 40.4158 9.41562 40.3024 9.14342 40.1503C8.58982 39.841 8.13112 39.3879 7.81622 38.8395C7.66142 38.5701 7.54482 38.2338 7.44042 37.6864C7.33402 37.1286 7.25112 36.4173 7.13402 35.4036L6.94782 33.5567C6.89612 33.0441 6.43732 32.6703 5.92322 32.7218C5.40902 32.7734 5.03412 33.2307 5.08582 33.7433L5.27352 35.6036L5.27832 35.6456C5.39082 36.6195 5.48102 37.4008 5.60202 38.035C5.72672 38.6884 5.89442 39.248 6.19222 39.7666C6.67572 40.6084 7.37962 41.3035 8.22862 41.7778C8.75152 42.07 9.31452 42.2323 9.97152 42.3511C10.6092 42.4663 11.3944 42.5498 12.3733 42.6538L14.2843 42.857C14.7982 42.9116 15.2591 42.5406 15.3139 42.0283ZM14.8033 16.8061C14.3587 16.8061 13.9982 17.1666 13.9982 17.6112V30.6607C13.9982 31.1054 14.3587 31.4658 14.8033 31.4658H17.3524C17.797 31.4658 18.1575 31.1054 18.1575 30.6607V17.6112C18.1575 17.1666 17.797 16.8061 17.3524 16.8061H14.8033ZM21.6951 16.8061C21.2505 16.8061 20.89 17.1666 20.89 17.6112V30.6607C20.89 31.1054 21.2505 31.4658 21.6951 31.4658H27.8431C29.4536 31.4658 30.882 31.1656 32.1284 30.5653C33.3747 29.9649 34.341 29.1133 35.0272 28.0103C35.7134 26.9073 36.0565 25.6159 36.0565 24.136C36.0565 22.656 35.7134 21.3646 35.0272 20.2616C34.341 19.1586 33.3747 18.307 32.1284 17.7066C30.882 17.1063 29.4536 16.8061 27.8431 16.8061H21.6951ZM30.6999 27.0888C29.9437 27.8009 28.9354 28.1569 27.675 28.1569H25.2908C25.1574 28.1569 25.0493 28.0488 25.0493 27.9154V20.3565C25.0493 20.2232 25.1574 20.115 25.2908 20.115H27.675C28.9354 20.115 29.9437 20.471 30.6999 21.1831C31.4702 21.8951 31.8553 22.8794 31.8553 24.136C31.8553 25.3925 31.4702 26.3768 30.6999 27.0888Z" fill="url(#paint0_linear_42_2389)"/>
<defs>
<linearGradient id="paint0_linear_42_2389" x1="14.1767" y1="17.6922" x2="27.1125" y2="36.5504" gradientUnits="userSpaceOnUse">
<stop stop-color="#CC5CDC"/>
<stop offset="0.244792" stop-color="#7B66FF"/>
<stop offset="0.520833" stop-color="#1F8AF0"/>
<stop offset="0.760417" stop-color="#00D1FF"/>
<stop offset="1" stop-color="#3DEDD7"/>
</linearGradient>
</defs>
</svg>
