<svg width="48" height="48" viewBox="0 0 48 48" fill="none" xmlns="http://www.w3.org/2000/svg">
<path d="M0 13C0 5.8203 5.8203 0 13 0H35C42.1797 0 48 5.8203 48 13V35C48 42.1797 42.1797 48 35 48H13C5.8203 48 0 42.1797 0 35V13Z" fill="#111117"/>
<g clip-path="url(#clip0_273_1097)">
<path d="M6.24023 15.2677V7.96448L7.19281 7H12.403L13.3435 7.96204V15.2652L12.403 16.2273H7.19281L6.24023 15.2652V15.2677ZM11.2135 14.3594L11.3972 14.1738V9.05838L11.2135 8.87281H8.36782L8.18407 9.05838V14.1738L8.36782 14.3594H11.2135Z" fill="#01FFFF"/>
<path d="M17.5725 15.2286V8.00355L16.9971 7.00244H23.2759L24.2284 7.96448V15.2677L23.2759 16.2297H16.9971L17.5725 15.2286ZM22.1033 14.3594L22.287 14.1738V9.05838L22.1033 8.87281H19.5187V14.3569H22.1033V14.3594Z" fill="#01FFFF"/>
<path d="M28.4467 15.2823V7.97669L27.8857 7H31.007L30.4316 8.01576V15.214L31.007 16.2297H27.9003L28.4491 15.2799L28.4467 15.2823Z" fill="#01FFFF"/>
<path d="M35.2355 15.3483V7.88391L34.6602 7H37.1286L40.1314 10.4941V7.85705L39.5705 7H42.7039L42.1163 7.88391V15.3458L42.7039 16.2297H39.5826L40.1314 15.3995V13.4218L37.2326 10.0717V15.3849L37.7814 16.2297H34.6602L35.2355 15.3458V15.3483Z" fill="#01FFFF"/>
<path d="M23.2324 23.3058L24.4727 22.0532L25.713 23.3058L24.4727 24.5585L23.2324 23.3058Z" fill="#01FFFF"/>
<path d="M10.0973 38.5983V31.3976L9.50977 30.3818H16.0376V32.8333L15.0319 32.2522H12.0411V34.1372H15.4475L14.6523 36.01H12.0411V38.608L12.6163 39.6091H9.50977L10.0973 38.5934V38.5983Z" fill="#01FFFF"/>
<path d="M20.281 38.6496V31.4123L19.6934 30.3843H22.8148L22.2271 31.4123V37.5557L22.4112 37.7412H25.0223L25.2059 37.5557V31.4123L24.6062 30.3843H27.7397L27.152 31.4123V38.6496L26.1996 39.6116H21.2387L20.2858 38.6496H20.281Z" fill="#01FFFF"/>
<path d="M31.9663 38.7301V31.2657L31.3906 30.3818H33.8591L36.8618 33.876V31.2389L36.3011 30.3818H39.4345L38.8468 31.2657V38.7277L39.4345 39.6115H36.3131L36.8618 38.7814V36.8036L33.9633 33.4535V38.7667L34.5121 39.6115H31.3906L31.9663 38.7277V38.7301Z" fill="#01FFFF"/>
</g>
<defs>
<clipPath id="clip0_273_1097">
<rect width="37" height="33" fill="white" transform="translate(6 7)"/>
</clipPath>
</defs>
</svg>
