<svg width="47" height="49" viewBox="0 0 47 49" fill="none" xmlns="http://www.w3.org/2000/svg">
<path d="M41.7404 35.4813L36.0234 33.1846H0L0.43635 35.4813H28.8199L31.3352 36.4149L33.8938 35.7114L36.0234 35.4813H41.7404Z" fill="url(#paint0_linear_78_2440)"/>
<path opacity="0.41" d="M21.1461 34.9329L8.80595 35.4808H0.43635L0 33.1841L14.8194 33.166L21.1461 34.9329Z" fill="#281400"/>
<path d="M0.436279 35.4805H28.8198L31.3351 36.4141L33.8938 35.7107L36.0234 35.4805H41.7404L44.7703 48.4996H2.94899L0.436279 35.4805Z" fill="url(#paint1_linear_78_2440)"/>
<g style="mix-blend-mode:overlay" opacity="0.21">
<path d="M28.9748 35.9751L31.5042 36.9087L34.0765 36.2053L36.2175 35.9751H41.8557L41.7404 35.4805H36.0234L33.8938 35.7107L31.3351 36.4141L28.8198 35.4805H0.436279L0.531802 35.9751H28.9748Z" fill="white"/>
</g>
<path opacity="0.34" d="M1.7203 35.4805L6.2368 48.4996H2.94899L0.436279 35.4805H1.7203Z" fill="#401E00"/>
<g style="mix-blend-mode:overlay" opacity="0.19">
<path d="M31.5058 35.2549L28.8198 35.4808L31.3351 36.4144L33.8938 35.711L35.8944 35.4946L31.5058 35.2549Z" fill="white"/>
</g>
<path style="mix-blend-mode:overlay" opacity="0.23" d="M2.427 45.957H44.1784L44.7703 48.5001H2.94896L2.427 45.957Z" fill="url(#paint2_linear_78_2440)"/>
<path d="M22.2704 31.1328L20.7181 31.2398L19.1653 31.1328C19.1653 31.1328 16.4589 31.2993 14.1743 33.0395C14.1743 33.0395 15.7438 33.6987 20.7181 33.6987C25.6924 33.6987 27.2619 33.0395 27.2619 33.0395C24.9773 31.2993 22.2704 31.1328 22.2704 31.1328Z" fill="url(#paint3_linear_78_2440)"/>
<g style="mix-blend-mode:overlay" opacity="0.43">
<path d="M20.7181 33.4789C16.7397 33.4789 14.9405 33.0575 14.3789 32.8887C14.3105 32.9362 14.2422 32.9876 14.1743 33.0394C14.1743 33.0394 15.7438 33.6986 20.7181 33.6986C25.6924 33.6986 27.2619 33.0394 27.2619 33.0394C27.194 32.9876 27.1257 32.9377 27.0568 32.8887C26.4951 33.0575 24.6965 33.4789 20.7181 33.4789Z" fill="white"/>
</g>
<path d="M27.2565 33.0424C27.1521 33.0847 25.5215 33.6992 20.719 33.6992C15.7452 33.6992 14.1757 33.04 14.1752 33.04L13.8098 34.1634C13.8098 34.1634 15.8455 34.9244 20.6516 34.9363H20.7837C25.5888 34.922 27.625 34.1634 27.625 34.1634L27.2565 33.0424Z" fill="url(#paint4_radial_78_2440)"/>
<path style="mix-blend-mode:overlay" opacity="0.43" d="M22.4439 31.149C22.3328 31.1366 22.2707 31.1328 22.2707 31.1328L20.7184 31.2398L19.1655 31.1328C19.1655 31.1328 16.4592 31.2993 14.1746 33.0395C17.1617 31.9808 21.2847 31.7996 21.2847 31.7996L22.4439 31.149Z" fill="url(#paint5_linear_78_2440)"/>
<path d="M23.4536 26.9106C23.1926 26.863 22.3345 26.7788 21.2343 26.7607H21.1711H21.0229H20.5876H20.4398H20.3767C19.2764 26.7788 18.4178 26.8606 18.1573 26.9106C18.0989 26.9177 18.0399 26.9253 17.9819 26.9334L18.9413 31.4097C18.9413 31.4097 19.3067 31.7298 20.3673 31.8069H20.397H20.4002C20.526 31.8159 20.6611 31.8211 20.8052 31.8207C20.9493 31.8202 21.085 31.8159 21.2102 31.8069H21.2139H21.2436C22.3043 31.7298 22.6696 31.4097 22.6696 31.4097L23.629 26.932L23.4536 26.9106Z" fill="url(#paint6_linear_78_2440)"/>
<path style="mix-blend-mode:overlay" opacity="0.37" d="M21.7031 31.7517C22.4109 31.6338 22.6693 31.4093 22.6693 31.4093L23.6286 26.9315L23.4533 26.9087C23.0696 26.8516 22.6828 26.8146 22.2945 26.7979L21.8848 27.0209L21.7031 31.7517Z" fill="url(#paint7_linear_78_2440)"/>
<path style="mix-blend-mode:overlay" opacity="0.27" d="M20.6319 26.7578H20.5876H20.4398H20.3767C19.2764 26.7759 18.4178 26.8577 18.1573 26.9076C18.0982 26.9149 18.0397 26.9225 17.9819 26.9305L18.9413 31.4068C18.9413 31.4068 19.3067 31.7269 20.3673 31.8039H20.397H20.4002C20.4978 31.8111 20.6022 31.8149 20.7102 31.8163L20.6319 26.7578Z" fill="url(#paint8_linear_78_2440)"/>
<path style="mix-blend-mode:screen" d="M24.7809 22.157C36.7942 22.157 46.533 17.6782 46.533 12.1532C46.533 6.62827 36.7942 2.14941 24.7809 2.14941C12.7675 2.14941 3.02881 6.62827 3.02881 12.1532C3.02881 17.6782 12.7675 22.157 24.7809 22.157Z" fill="url(#paint9_radial_78_2440)"/>
<path d="M25.9073 26.5586L20.8057 26.7574L15.7046 26.5586L15.9358 27.5003C15.9358 27.5003 18.0435 28.081 20.8052 28.081C23.5668 28.081 25.6745 27.5003 25.6745 27.5003L25.9073 26.5586Z" fill="url(#paint10_linear_78_2440)"/>
<path style="mix-blend-mode:overlay" opacity="0.18" d="M19.1693 26.6946L15.7051 26.5596L15.9363 27.5013C15.9363 27.5013 17.3425 27.8884 19.3624 28.0301L19.1693 26.6946Z" fill="url(#paint11_linear_78_2440)"/>
<path d="M9.79702 17.3027L2.96094 18.5502V19.2104L6.08328 24.2622L8.06567 25.0679L11.6834 24.4192L11.2935 23.1712L8.4989 23.535L7.17679 23.0432L5.20796 19.9575L5.96376 19.0334L10.3247 19.5457L9.79702 17.3027Z" fill="url(#paint12_linear_78_2440)"/>
<path d="M9.58719 16.6225L5.02372 16.1074L2.96094 18.5496L5.98725 23.6528L7.90909 24.4666L11.4161 23.8112L11.0377 22.5504L8.32927 22.918L7.04786 22.4215L5.13907 19.3039L5.8719 18.3708L10.0992 18.8883L9.58719 16.6225Z" fill="url(#paint13_linear_78_2440)"/>
<g opacity="0.28">
<path d="M7.04771 22.4213L5.13892 19.3037V19.6119L7.04771 22.729L8.32912 23.2255L11.1263 22.846L11.0376 22.5502L8.32912 22.9178L7.04771 22.4213Z" fill="#FFFF6C"/>
<path d="M5.02372 16.4151L9.65869 16.9383L9.58719 16.6225L5.02372 16.1074L2.96094 18.5496L3.06845 18.7304L5.02372 16.4151Z" fill="#FFFF6C"/>
</g>
<g opacity="0.35">
<path d="M8.16696 19.2926L9.4233 19.4401L8.91232 17.1724L8.85855 17.1829L8.77399 16.7924L8.71606 16.5246L7.64917 16.4043L8.16696 19.2926Z" fill="black"/>
<path d="M11.215 24.4673L10.9363 23.313L10.608 23.0043L10.8183 22.5811L8.80615 22.854L9.16787 24.8706L10.2441 24.6775L11.215 24.4673Z" fill="black"/>
</g>
<path d="M31.5158 17.3027L38.3513 18.5502V19.2104L35.2295 24.2622L33.2466 25.0679L29.6289 24.4192L30.0193 23.1712L32.8134 23.535L34.1355 23.0432L36.1043 19.9575L35.3485 19.0334L30.9876 19.5457L31.5158 17.3027Z" fill="url(#paint14_linear_78_2440)"/>
<path d="M31.7251 16.6225L36.2892 16.1074L38.3514 18.5496L35.3251 23.6528L33.4033 24.4666L29.8967 23.8112L30.2746 22.5504L32.9836 22.918L34.265 22.4215L36.1733 19.3039L35.441 18.3708L31.2136 18.8883L31.7251 16.6225Z" fill="url(#paint15_linear_78_2440)"/>
<path d="M34.2649 22.4223L36.1732 19.3047V19.6129L34.2649 22.73L32.9835 23.2265L30.1858 22.847L30.2745 22.5511L32.9835 22.9188L34.2649 22.4223Z" fill="#FFCE6C"/>
<path d="M36.2891 16.4151L31.6536 16.9383L31.7251 16.6225L36.2891 16.1074L38.3513 18.5496L38.2443 18.7304L36.2891 16.4151Z" fill="#FFCE6C"/>
<g opacity="0.4">
<path d="M31.9984 24.8435L32.405 22.8393L31.0469 22.6553L30.9701 22.9111L30.8485 23.3173L30.7666 23.3069L30.3772 24.5524L31.9984 24.8435Z" fill="black"/>
<path d="M33.0627 19.3017L33.6504 16.4053L32.5768 16.5265L32.5272 16.7453L32.428 17.1853L32.3648 17.1738L31.8298 19.4463L33.0627 19.3017Z" fill="black"/>
</g>
<path d="M33.492 14.5105C33.492 13.4842 27.8121 12.6523 20.8053 12.6523C13.7986 12.6523 8.11914 13.4842 8.11914 14.5105C8.11971 14.5522 8.12911 14.5934 8.14681 14.6318C8.37595 15.6377 9.99192 22.6695 10.6866 24.1215C11.4174 25.6401 15.413 26.9751 20.5825 27.0464V27.0502C20.6576 27.0502 20.7312 27.0502 20.8053 27.0502C20.8794 27.0502 20.9536 27.0502 21.0282 27.0502V27.0464C26.1982 26.9736 30.1964 25.6401 30.9245 24.1215C31.6193 22.6718 33.2352 15.6377 33.4644 14.6318C33.4821 14.5934 33.4915 14.5522 33.492 14.5105Z" fill="url(#paint16_radial_78_2440)"/>
<path style="mix-blend-mode:screen" d="M32.7921 21.986C36.7068 18.419 36.7068 12.6357 32.7921 9.06869C28.8774 5.50167 22.5305 5.50167 18.6158 9.06868C14.7011 12.6357 14.7011 18.419 18.6158 21.986C22.5305 25.553 28.8774 25.553 32.7921 21.986Z" fill="url(#paint17_radial_78_2440)"/>
<path style="mix-blend-mode:screen" d="M32.694 20.9323C36.6087 17.3653 36.6087 11.582 32.694 8.01497C28.7793 4.44796 22.4323 4.44796 18.5176 8.01497C14.6029 11.582 14.6029 17.3653 18.5176 20.9323C22.4323 24.4993 28.7793 24.4993 32.694 20.9323Z" fill="url(#paint18_radial_78_2440)"/>
<path style="mix-blend-mode:screen" d="M28.2965 19.8756C32.2112 16.3086 32.2112 10.5253 28.2965 6.95833C24.3818 3.39131 18.0349 3.39132 14.1202 6.95833C10.2055 10.5254 10.2055 16.3086 14.1202 19.8756C18.0349 23.4427 24.3818 23.4427 28.2965 19.8756Z" fill="url(#paint19_radial_78_2440)"/>
<path style="mix-blend-mode:overlay" d="M25.2741 13.6963C25.2741 13.6963 24.474 21.1318 23.9786 22.8987C23.4833 24.6656 19.8891 27.084 15.7051 26.5608C17.1305 26.8462 18.7846 27.0236 20.5828 27.0488V27.0526C20.6579 27.0526 20.7315 27.0526 20.8062 27.0526C20.8808 27.0526 20.9539 27.0526 21.0285 27.0526V27.0488C22.7661 27.0245 24.3691 26.8586 25.7632 26.5884C25.877 26.5542 28.6794 25.6757 29.3887 22.8012C30.1127 19.8672 31.2678 14.6142 31.2678 14.6142L25.2741 13.6963Z" fill="url(#paint20_linear_78_2440)"/>
<path opacity="0.37" d="M14.6429 23.5507C14.194 22.4569 13.0984 15.3276 12.7638 13.0918C9.92908 13.4323 8.11841 13.9479 8.11841 14.5286C8.11893 14.5703 8.12832 14.6115 8.14607 14.6499C8.37521 15.6558 9.99119 22.6875 10.6859 24.1395C11.3869 25.6011 15.1163 26.8904 20.0034 27.0507C16.1132 26.4495 15.1763 24.8506 14.6429 23.5507Z" fill="url(#paint21_linear_78_2440)"/>
<path opacity="0.35" d="M8.11914 14.5105C8.11971 14.5522 8.12911 14.5933 8.14681 14.6318C8.21988 14.9533 8.43544 15.8916 8.71678 17.0664C15.5153 13.7766 31.2654 14.6118 31.2654 14.6118L32.2519 13.7082C30.2084 13.0827 25.8506 12.6514 20.8038 12.6514C13.7991 12.6523 8.11914 13.4841 8.11914 14.5105Z" fill="url(#paint22_linear_78_2440)"/>
<path style="mix-blend-mode:overlay" opacity="0.2" d="M21.2432 24.0313C20.9822 22.8527 20.1695 13.6993 20.1695 13.6993L20.0761 12.6592C16.6463 12.6906 13.5866 12.9217 11.4314 13.2741V13.3303H11.4371C11.6355 13.2985 11.8413 13.2678 12.0546 13.238L12.1115 13.2299L12.3605 13.1966L12.4476 13.1852C12.5458 13.1725 12.645 13.1601 12.7452 13.1481L12.7624 13.1457C13.0991 15.381 14.1946 22.5108 14.6414 23.6047C14.6936 23.7259 14.7458 23.8491 14.8027 23.9742L14.8111 23.9918C14.8273 24.026 14.844 24.0603 14.8633 24.095L14.8831 24.1345C14.8967 24.1621 14.9108 24.1892 14.9254 24.2168L14.9536 24.2691C14.9661 24.2924 14.9786 24.3166 14.9917 24.339L15.0277 24.4013C15.0392 24.4213 15.0507 24.4412 15.0627 24.4612L15.1055 24.5307L15.1383 24.5835L15.1905 24.6591L15.2219 24.7066C15.2407 24.7342 15.2594 24.7613 15.2793 24.7884L15.308 24.8279C15.3294 24.8569 15.3513 24.8855 15.3743 24.9145L15.4004 24.9478C15.4249 24.9782 15.4494 25.0091 15.4755 25.0395L15.4985 25.0662C15.5262 25.0985 15.5543 25.1309 15.5836 25.1613C15.5898 25.1675 15.5961 25.1741 15.6018 25.1808C15.6337 25.2151 15.666 25.2493 15.6994 25.2831L15.7104 25.2945C16.3326 25.9199 17.282 26.4911 18.8286 26.8716H18.8328C18.9281 26.8947 19.0261 26.9175 19.1266 26.9401H19.1324C19.2326 26.9619 19.3352 26.9832 19.4403 27.0038C19.8386 27.0252 20.2452 27.0399 20.6601 27.0456V27.0494C20.7348 27.0494 20.8089 27.0494 20.883 27.0494C20.9571 27.0494 21.0312 27.0494 21.1059 27.0494V27.0456C21.5854 27.039 22.0552 27.0217 22.5152 26.9938C22.1159 26.2381 21.4264 24.8536 21.2432 24.0313Z" fill="url(#paint23_linear_78_2440)"/>
<path d="M20.8062 9.83789C12.9768 9.83789 6.6272 11.0141 6.6272 12.4646C6.62766 12.5228 6.63804 12.5806 6.65798 12.6359C6.72532 13.0102 6.90018 13.9747 7.13506 15.2303C8.78654 14.1188 14.2812 13.3022 20.8062 13.3022C27.3312 13.3022 32.8253 14.1188 34.4773 15.2303C34.7122 13.9747 34.887 13.0102 34.9544 12.6359C34.9743 12.5806 34.9847 12.5228 34.9852 12.4646C34.9852 11.0141 28.6371 9.83789 20.8062 9.83789Z" fill="url(#paint24_radial_78_2440)"/>
<path style="mix-blend-mode:screen" d="M28.0798 18.3723C32.8945 18.3723 36.7975 14.8159 36.7975 10.4288C36.7975 6.04177 32.8945 2.48535 28.0798 2.48535C23.2651 2.48535 19.3621 6.04177 19.3621 10.4288C19.3621 14.8159 23.2651 18.3723 28.0798 18.3723Z" fill="url(#paint25_radial_78_2440)"/>
<path style="mix-blend-mode:overlay" d="M26.5959 10.0664L26.1648 13.4432L27.1978 13.5859C28.5059 13.7018 29.8064 13.8812 31.0937 14.1233L31.9538 14.2422L32.7232 11.0428C31.2403 10.6162 29.1123 10.2752 26.5959 10.0664Z" fill="url(#paint26_linear_78_2440)"/>
<path opacity="0.14" d="M15.7239 10.0117C10.4036 10.3922 6.6272 11.3434 6.6272 12.4644C6.62766 12.5226 6.63804 12.5803 6.65798 12.6356C6.72532 13.0099 6.90018 13.9744 7.13506 15.23C8.3674 14.4006 11.7387 13.7357 16.0809 13.4517L15.7239 10.0117Z" fill="black"/>
<path style="mix-blend-mode:overlay" opacity="0.64" d="M20.8059 9.83789C12.9766 9.83789 6.62695 11.0141 6.62695 12.4646C6.62742 12.5228 6.6378 12.5806 6.65774 12.6359C6.66087 12.6554 6.66505 12.6777 6.66922 12.7005C7.23189 11.3455 13.3461 10.2783 20.8059 10.2783C28.2658 10.2783 34.3794 11.3455 34.9426 12.7005C34.9468 12.6777 34.9505 12.653 34.9541 12.6359C34.9741 12.5806 34.9844 12.5228 34.9849 12.4646C34.9849 11.0141 28.6369 9.83789 20.8059 9.83789Z" fill="url(#paint27_linear_78_2440)"/>
<path opacity="0.35" d="M20.706 12.8467C9.46562 12.8467 7.44251 14.43 7.17475 15.0059C7.14103 15.072 7.13418 15.1468 7.15543 15.2171C8.82987 14.1123 14.3063 13.3018 20.8062 13.3018C27.3061 13.3018 32.7799 14.1104 34.4559 15.2166C34.4767 15.1464 34.4697 15.0718 34.4361 15.0059C34.1683 14.43 31.949 12.8467 20.706 12.8467Z" fill="url(#paint28_linear_78_2440)"/>
<path d="M34.4362 15.0919C34.1684 14.5802 31.947 13.1738 20.7061 13.1738C9.46524 13.1738 7.44265 14.5802 7.17436 15.0919C6.90608 15.6037 8.4114 15.7739 8.4114 15.7739L8.25481 15.0919C12.0609 13.9705 18.5436 13.8611 20.8074 13.8587C23.0711 13.8563 29.5543 13.9705 33.3599 15.0919L33.2034 15.7739C33.2034 15.7739 34.7045 15.6037 34.4362 15.0919Z" fill="url(#paint29_linear_78_2440)"/>
<path opacity="0.14" d="M24.7765 20.4699C24.8364 18.0666 22.7467 16.0741 20.1092 16.0196C17.4716 15.9651 15.2849 17.8691 15.2251 20.2724C15.1652 22.6758 17.2549 24.6682 19.8924 24.7228C22.53 24.7773 24.7167 22.8733 24.7765 20.4699Z" fill="black"/>
<path d="M20.6183 24.3158C23.2565 24.3158 25.3952 22.367 25.3952 19.9631C25.3952 17.5591 23.2565 15.6104 20.6183 15.6104C17.98 15.6104 15.8413 17.5591 15.8413 19.9631C15.8413 22.367 17.98 24.3158 20.6183 24.3158Z" fill="url(#paint30_linear_78_2440)"/>
<path d="M20.6185 23.688C23.0662 23.688 25.0504 21.88 25.0504 19.6497C25.0504 17.4194 23.0662 15.6113 20.6185 15.6113C18.1708 15.6113 16.1865 17.4194 16.1865 19.6497C16.1865 21.88 18.1708 23.688 20.6185 23.688Z" fill="url(#paint31_linear_78_2440)"/>
<path style="mix-blend-mode:overlay" d="M20.6185 15.6123C19.4431 15.6124 18.3159 16.0379 17.4848 16.7952C16.6536 17.5525 16.1867 18.5796 16.1865 19.6506C16.1869 19.9073 16.2138 20.1633 16.2669 20.4154C16.1499 19.6754 16.2713 18.9203 16.6163 18.242C16.9614 17.5636 17.5153 16.9912 18.2106 16.5943C18.906 16.1973 19.7129 15.993 20.5333 16.0061C21.3537 16.0191 22.1523 16.249 22.8321 16.6679C23.5118 17.0867 24.0433 17.6764 24.3622 18.3653C24.681 19.0543 24.7733 19.8127 24.628 20.5486C24.4827 21.2844 24.1059 21.966 23.5435 22.5104C22.981 23.0548 22.2572 23.4386 21.4599 23.6152C22.5417 23.4243 23.5067 22.8729 24.1666 22.0687C24.8264 21.2644 25.1337 20.2651 25.0286 19.2655C24.9236 18.266 24.4136 17.338 23.5982 16.6625C22.7828 15.9871 21.7205 15.6127 20.6185 15.6123Z" fill="url(#paint32_linear_78_2440)"/>
<path d="M20.6184 15.6123V20.5391L24.9762 20.3831C25.0947 19.8005 25.071 19.2013 24.9067 18.6281C24.7424 18.0548 24.4415 17.5216 24.0256 17.0662C23.6096 16.6108 23.0887 16.2445 22.4998 15.9932C21.911 15.7419 21.2686 15.6119 20.6184 15.6123Z" fill="url(#paint33_linear_78_2440)"/>
<g style="mix-blend-mode:overlay">
<path d="M18.7581 18.3021L19.0858 17.2695H22.1174L22.6639 18.937L22.0083 19.8078L22.6639 20.7286L22.2813 22.6824H18.9084L18.7581 21.6622H21.1069L21.312 20.9155L21.0249 20.4299H19.6459V19.4345H20.9978L21.2979 18.7377L20.9602 18.2821L18.7581 18.3021Z" fill="url(#paint34_linear_78_2440)"/>
<path d="M22.4096 22.8209H18.7752L18.5841 21.5226H20.9888L21.1506 20.9338L20.935 20.5685H19.4944V19.2953H20.8948L21.1276 18.7546L20.8807 18.4216L18.5554 18.443L18.973 17.1309H22.2331L22.8329 18.961L22.1935 19.8104L22.8266 20.6993L22.4096 22.8209ZM19.0419 22.5432H22.1543L22.5035 20.7578L21.825 19.8066L22.4967 18.9134L22.004 17.4091H19.2L18.9615 18.162L21.0405 18.1429L21.469 18.7213L21.1036 19.574H19.7987V20.2917H21.1167L21.4742 20.8976L21.2263 21.8013H18.9328L19.0419 22.5432Z" fill="url(#paint35_linear_78_2440)"/>
</g>
<path d="M18.7576 18.1634L19.0854 17.1309H22.1169L22.6634 18.7983L22.0078 19.6691L22.6634 20.5899L22.2808 22.5437H18.9079L18.7576 21.5235H21.1064L21.3115 20.7768L21.0244 20.2912H19.6454V19.2958H20.9973L21.2974 18.599L20.9597 18.1434L18.7576 18.1634Z" fill="url(#paint36_linear_78_2440)"/>
<g opacity="0.52">
<path d="M19.0854 17.4433H22.1169L22.5919 18.893L22.6634 18.7983L22.1169 17.1309H19.0854L18.7576 18.1634L18.8573 18.1624L19.0854 17.4433Z" fill="url(#paint37_linear_78_2440)"/>
<path d="M19.6453 19.2954V19.6079H20.9971L21.2973 18.9111V18.5986L20.9971 19.2954H19.6453Z" fill="url(#paint38_linear_78_2440)"/>
<path d="M21.1064 21.8359L21.3115 21.0892L21.2525 20.9902L21.1064 21.5234H18.7576L18.8035 21.8359H21.1064Z" fill="url(#paint39_linear_78_2440)"/>
<path d="M22.0078 19.9814L22.6154 20.8351L22.6634 20.5897L22.0078 19.6689V19.9814Z" fill="url(#paint40_linear_78_2440)"/>
</g>
<path style="mix-blend-mode:screen" d="M23.6291 26.177C34.159 26.177 42.6951 22.2511 42.6951 17.4083C42.6951 12.5655 34.159 8.63965 23.6291 8.63965C13.0992 8.63965 4.56299 12.5655 4.56299 17.4083C4.56299 22.2511 13.0992 26.177 23.6291 26.177Z" fill="url(#paint41_radial_78_2440)"/>
<defs>
<linearGradient id="paint0_linear_78_2440" x1="39.0346" y1="35.1878" x2="-4.68313" y2="33.024" gradientUnits="userSpaceOnUse">
<stop stop-color="#E9C580"/>
<stop offset="1" stop-color="#D29E72"/>
</linearGradient>
<linearGradient id="paint1_linear_78_2440" x1="-0.0460101" y1="50.771" x2="46.2695" y2="29.1438" gradientUnits="userSpaceOnUse">
<stop stop-color="#9F602E"/>
<stop offset="1" stop-color="#DAA052"/>
</linearGradient>
<linearGradient id="paint2_linear_78_2440" x1="2.427" y1="47.2283" x2="44.7703" y2="47.2283" gradientUnits="userSpaceOnUse">
<stop/>
<stop offset="1" stop-color="#723C00"/>
</linearGradient>
<linearGradient id="paint3_linear_78_2440" x1="27.0604" y1="32.416" x2="16.758" y2="32.416" gradientUnits="userSpaceOnUse">
<stop stop-color="#FEBE4A"/>
<stop offset="0.71" stop-color="#A66622"/>
<stop offset="1" stop-color="#6C3C00"/>
</linearGradient>
<radialGradient id="paint4_radial_78_2440" cx="0" cy="0" r="1" gradientUnits="userSpaceOnUse" gradientTransform="translate(24.0736 33.2498) scale(9.93494 9.05259)">
<stop stop-color="#FAE060"/>
<stop offset="0.29" stop-color="#CE823A"/>
<stop offset="0.71" stop-color="#A66622"/>
<stop offset="1" stop-color="#6C3C00"/>
</radialGradient>
<linearGradient id="paint5_linear_78_2440" x1="19.0982" y1="31.7026" x2="13.5051" y2="33.591" gradientUnits="userSpaceOnUse">
<stop/>
<stop offset="1"/>
</linearGradient>
<linearGradient id="paint6_linear_78_2440" x1="24.1327" y1="29.2838" x2="17.6296" y2="29.2993" gradientUnits="userSpaceOnUse">
<stop stop-color="#CE823A"/>
<stop offset="0.59" stop-color="#A66622"/>
<stop offset="1" stop-color="#6C3C00"/>
</linearGradient>
<linearGradient id="paint7_linear_78_2440" x1="22.6656" y1="25.9013" x2="22.6656" y2="30.7553" gradientUnits="userSpaceOnUse">
<stop stop-color="#FEFEBE"/>
<stop offset="1" stop-color="white"/>
</linearGradient>
<linearGradient id="paint8_linear_78_2440" x1="19.3463" y1="28.8604" x2="19.3463" y2="33.0995" gradientUnits="userSpaceOnUse">
<stop/>
<stop offset="1"/>
</linearGradient>
<radialGradient id="paint9_radial_78_2440" cx="0" cy="0" r="1" gradientUnits="userSpaceOnUse" gradientTransform="translate(24.71 12.2269) scale(21.6069 9.94339)">
<stop stop-color="#BA7000"/>
<stop offset="0.02" stop-color="#B16B00"/>
<stop offset="0.09" stop-color="#885200"/>
<stop offset="0.17" stop-color="#633C00"/>
<stop offset="0.26" stop-color="#442900"/>
<stop offset="0.35" stop-color="#2B1A00"/>
<stop offset="0.45" stop-color="#180E00"/>
<stop offset="0.57" stop-color="#0A0600"/>
<stop offset="0.72" stop-color="#020100"/>
<stop offset="1"/>
</radialGradient>
<linearGradient id="paint10_linear_78_2440" x1="26.4961" y1="27.3196" x2="17.6734" y2="27.3196" gradientUnits="userSpaceOnUse">
<stop stop-color="#CE823A"/>
<stop offset="0.38" stop-color="#A66622"/>
<stop offset="1" stop-color="#6C3C00"/>
</linearGradient>
<linearGradient id="paint11_linear_78_2440" x1="17.5335" y1="26.2794" x2="17.5335" y2="30.8423" gradientUnits="userSpaceOnUse">
<stop/>
<stop offset="1"/>
</linearGradient>
<linearGradient id="paint12_linear_78_2440" x1="7.32241" y1="26.9337" x2="7.32241" y2="14.071" gradientUnits="userSpaceOnUse">
<stop stop-color="#A46A2C"/>
<stop offset="0.41" stop-color="#82511B"/>
<stop offset="1" stop-color="#4A2A00"/>
</linearGradient>
<linearGradient id="paint13_linear_78_2440" x1="8.43836" y1="25.6661" x2="5.25135" y2="11.334" gradientUnits="userSpaceOnUse">
<stop stop-color="#FAE28C"/>
<stop offset="0.35" stop-color="#CE823A"/>
<stop offset="0.71" stop-color="#A66622"/>
<stop offset="1" stop-color="#6C3C00"/>
</linearGradient>
<linearGradient id="paint14_linear_78_2440" x1="33.9904" y1="10.017" x2="33.9904" y2="34.9775" gradientUnits="userSpaceOnUse">
<stop stop-color="#A46A2C"/>
<stop offset="0.41" stop-color="#82511B"/>
<stop offset="1" stop-color="#4A2A00"/>
</linearGradient>
<linearGradient id="paint15_linear_78_2440" x1="29.118" y1="20.949" x2="45.0446" y2="18.6979" gradientUnits="userSpaceOnUse">
<stop stop-color="#FAE266"/>
<stop offset="0.5" stop-color="#CE823A"/>
<stop offset="1" stop-color="#A66622"/>
</linearGradient>
<radialGradient id="paint16_radial_78_2440" cx="0" cy="0" r="1" gradientUnits="userSpaceOnUse" gradientTransform="translate(24.5921 15.8531) scale(16.9344 15.4304)">
<stop stop-color="#FACC70"/>
<stop offset="0.29" stop-color="#CE9458"/>
<stop offset="0.71" stop-color="#A66622"/>
<stop offset="1" stop-color="#6C3C00"/>
</radialGradient>
<radialGradient id="paint17_radial_78_2440" cx="0" cy="0" r="1" gradientUnits="userSpaceOnUse" gradientTransform="translate(25.7039 15.5954) scale(9.96365 9.07875)">
<stop stop-color="#FFB256"/>
<stop offset="0.04" stop-color="#E29E4C"/>
<stop offset="0.1" stop-color="#B37D3C"/>
<stop offset="0.17" stop-color="#885F2E"/>
<stop offset="0.24" stop-color="#634521"/>
<stop offset="0.32" stop-color="#443017"/>
<stop offset="0.41" stop-color="#2B1E0F"/>
<stop offset="0.5" stop-color="#181108"/>
<stop offset="0.61" stop-color="#0A0703"/>
<stop offset="0.74" stop-color="#020201"/>
<stop offset="1"/>
</radialGradient>
<radialGradient id="paint18_radial_78_2440" cx="0" cy="0" r="1" gradientUnits="userSpaceOnUse" gradientTransform="translate(25.6058 14.5417) scale(9.96365 9.07875)">
<stop stop-color="#FFB256"/>
<stop offset="0.04" stop-color="#E29E4C"/>
<stop offset="0.1" stop-color="#B37D3C"/>
<stop offset="0.17" stop-color="#885F2E"/>
<stop offset="0.24" stop-color="#634521"/>
<stop offset="0.32" stop-color="#443017"/>
<stop offset="0.41" stop-color="#2B1E0F"/>
<stop offset="0.5" stop-color="#181108"/>
<stop offset="0.61" stop-color="#0A0703"/>
<stop offset="0.74" stop-color="#020201"/>
<stop offset="1"/>
</radialGradient>
<radialGradient id="paint19_radial_78_2440" cx="0" cy="0" r="1" gradientUnits="userSpaceOnUse" gradientTransform="translate(21.2084 13.4846) scale(9.96365 9.07875)">
<stop stop-color="#FFB256"/>
<stop offset="0.04" stop-color="#E29E4C"/>
<stop offset="0.1" stop-color="#B37D3C"/>
<stop offset="0.17" stop-color="#885F2E"/>
<stop offset="0.24" stop-color="#634521"/>
<stop offset="0.32" stop-color="#443017"/>
<stop offset="0.41" stop-color="#2B1E0F"/>
<stop offset="0.5" stop-color="#181108"/>
<stop offset="0.61" stop-color="#0A0703"/>
<stop offset="0.74" stop-color="#020201"/>
<stop offset="1"/>
</radialGradient>
<linearGradient id="paint20_linear_78_2440" x1="23.4864" y1="13.7243" x2="23.4864" y2="23.0095" gradientUnits="userSpaceOnUse">
<stop stop-color="#F2ECFF"/>
<stop offset="1" stop-color="white"/>
</linearGradient>
<linearGradient id="paint21_linear_78_2440" x1="12.1495" y1="17.0398" x2="14.6386" y2="25.0873" gradientUnits="userSpaceOnUse">
<stop stop-color="#3A1800"/>
<stop offset="1"/>
</linearGradient>
<linearGradient id="paint22_linear_78_2440" x1="8.11914" y1="14.8591" x2="32.254" y2="14.8591" gradientUnits="userSpaceOnUse">
<stop stop-color="#482C12"/>
<stop offset="0.34" stop-color="#44270F"/>
<stop offset="0.77" stop-color="#381706"/>
<stop offset="1" stop-color="#300C00"/>
</linearGradient>
<linearGradient id="paint23_linear_78_2440" x1="16.022" y1="14.3656" x2="17.5724" y2="23.918" gradientUnits="userSpaceOnUse">
<stop/>
<stop offset="1"/>
</linearGradient>
<radialGradient id="paint24_radial_78_2440" cx="0" cy="0" r="1" gradientUnits="userSpaceOnUse" gradientTransform="translate(27.9225 11.9919) scale(25.554 23.2845)">
<stop stop-color="#FAE28C"/>
<stop offset="0.35" stop-color="#CE823A"/>
<stop offset="0.71" stop-color="#A66622"/>
<stop offset="1" stop-color="#6C3C00"/>
</radialGradient>
<radialGradient id="paint25_radial_78_2440" cx="0" cy="0" r="1" gradientUnits="userSpaceOnUse" gradientTransform="translate(28.0798 10.4873) scale(8.6645 7.89498)">
<stop stop-color="#FFB256"/>
<stop offset="0.04" stop-color="#E29E4C"/>
<stop offset="0.1" stop-color="#B37D3C"/>
<stop offset="0.17" stop-color="#885F2E"/>
<stop offset="0.24" stop-color="#634521"/>
<stop offset="0.32" stop-color="#443017"/>
<stop offset="0.41" stop-color="#2B1E0F"/>
<stop offset="0.5" stop-color="#181108"/>
<stop offset="0.61" stop-color="#0A0703"/>
<stop offset="0.74" stop-color="#020201"/>
<stop offset="1"/>
</radialGradient>
<linearGradient id="paint26_linear_78_2440" x1="29.4437" y1="9.92706" x2="29.4437" y2="13.7076" gradientUnits="userSpaceOnUse">
<stop stop-color="#FEFEBE"/>
<stop offset="1" stop-color="white"/>
</linearGradient>
<linearGradient id="paint27_linear_78_2440" x1="6.62695" y1="11.2695" x2="34.9849" y2="11.2695" gradientUnits="userSpaceOnUse">
<stop stop-color="#FEFEFF"/>
<stop offset="0.12" stop-color="#FEFEFF"/>
<stop offset="0.54" stop-color="#FEFEFF"/>
<stop offset="1" stop-color="#FEFEFF"/>
</linearGradient>
<linearGradient id="paint28_linear_78_2440" x1="29.0103" y1="14.0319" x2="16.3153" y2="14.0319" gradientUnits="userSpaceOnUse">
<stop stop-color="#6A2C12"/>
<stop offset="0.24" stop-color="#652910"/>
<stop offset="0.54" stop-color="#55200B"/>
<stop offset="0.88" stop-color="#3B1204"/>
<stop offset="1" stop-color="#300C00"/>
</linearGradient>
<linearGradient id="paint29_linear_78_2440" x1="29.011" y1="14.4736" x2="16.3154" y2="14.4736" gradientUnits="userSpaceOnUse">
<stop stop-color="#A46A2C"/>
<stop offset="0.41" stop-color="#82511B"/>
<stop offset="1" stop-color="#4A2A00"/>
</linearGradient>
<linearGradient id="paint30_linear_78_2440" x1="22.941" y1="17.2383" x2="19.1987" y2="22.5266" gradientUnits="userSpaceOnUse">
<stop stop-color="#C4903C"/>
<stop offset="0.31" stop-color="#A1732B"/>
<stop offset="1" stop-color="#4A2A00"/>
</linearGradient>
<linearGradient id="paint31_linear_78_2440" x1="21.7699" y1="15.8092" x2="19.2966" y2="25.746" gradientUnits="userSpaceOnUse">
<stop stop-color="#FAE28C"/>
<stop offset="0.57" stop-color="#CE823A"/>
<stop offset="1" stop-color="#A66622"/>
</linearGradient>
<linearGradient id="paint32_linear_78_2440" x1="22.8399" y1="16.174" x2="18.5625" y2="24.2334" gradientUnits="userSpaceOnUse">
<stop stop-color="#FEFEFF"/>
<stop offset="0.12" stop-color="#FEFEFF"/>
<stop offset="0.54" stop-color="#FEFEFF"/>
<stop offset="1" stop-color="#FEFEFF"/>
</linearGradient>
<linearGradient id="paint33_linear_78_2440" x1="24.079" y1="16.4365" x2="21.6681" y2="19.9707" gradientUnits="userSpaceOnUse">
<stop stop-color="#F2ECFF"/>
<stop offset="0.48" stop-color="#FAF8FF"/>
<stop offset="1" stop-color="white"/>
</linearGradient>
<linearGradient id="paint34_linear_78_2440" x1="18.7581" y1="19.9757" x2="22.6639" y2="19.9757" gradientUnits="userSpaceOnUse">
<stop stop-color="#FEFEFF"/>
<stop offset="0.12" stop-color="#FEFEFF"/>
<stop offset="0.54" stop-color="#FEFEFF"/>
<stop offset="1" stop-color="#FEFEFF"/>
</linearGradient>
<linearGradient id="paint35_linear_78_2440" x1="18.5549" y1="19.9754" x2="22.8313" y2="19.9754" gradientUnits="userSpaceOnUse">
<stop stop-color="#FEFEFF"/>
<stop offset="0.12" stop-color="#FEFEFF"/>
<stop offset="0.54" stop-color="#FEFEFF"/>
<stop offset="1" stop-color="#FEFEFF"/>
</linearGradient>
<linearGradient id="paint36_linear_78_2440" x1="20.7102" y1="25.2898" x2="20.7102" y2="17.147" gradientUnits="userSpaceOnUse">
<stop stop-color="#A46A2C"/>
<stop offset="0.41" stop-color="#82511B"/>
<stop offset="1" stop-color="#4A2A00"/>
</linearGradient>
<linearGradient id="paint37_linear_78_2440" x1="20.7102" y1="19.7871" x2="20.7102" y2="17.1361" gradientUnits="userSpaceOnUse">
<stop stop-color="#482C12"/>
<stop offset="0.34" stop-color="#44270F"/>
<stop offset="0.77" stop-color="#381706"/>
<stop offset="1" stop-color="#300C00"/>
</linearGradient>
<linearGradient id="paint38_linear_78_2440" x1="20.4715" y1="20.1201" x2="20.4715" y2="18.6015" gradientUnits="userSpaceOnUse">
<stop stop-color="#482C12"/>
<stop offset="0.34" stop-color="#44270F"/>
<stop offset="0.77" stop-color="#381706"/>
<stop offset="1" stop-color="#300C00"/>
</linearGradient>
<linearGradient id="paint39_linear_78_2440" x1="20.0343" y1="22.2648" x2="20.0343" y2="20.9926" gradientUnits="userSpaceOnUse">
<stop stop-color="#482C12"/>
<stop offset="0.34" stop-color="#44270F"/>
<stop offset="0.77" stop-color="#381706"/>
<stop offset="1" stop-color="#300C00"/>
</linearGradient>
<linearGradient id="paint40_linear_78_2440" x1="22.3356" y1="21.4263" x2="22.3356" y2="19.6723" gradientUnits="userSpaceOnUse">
<stop stop-color="#482C12"/>
<stop offset="0.34" stop-color="#44270F"/>
<stop offset="0.77" stop-color="#381706"/>
<stop offset="1" stop-color="#300C00"/>
</linearGradient>
<radialGradient id="paint41_radial_78_2440" cx="0" cy="0" r="1" gradientUnits="userSpaceOnUse" gradientTransform="translate(23.5589 17.473) scale(18.9395 8.71587)">
<stop stop-color="#BA7000"/>
<stop offset="0.02" stop-color="#B16B00"/>
<stop offset="0.09" stop-color="#885200"/>
<stop offset="0.17" stop-color="#633C00"/>
<stop offset="0.26" stop-color="#442900"/>
<stop offset="0.35" stop-color="#2B1A00"/>
<stop offset="0.45" stop-color="#180E00"/>
<stop offset="0.57" stop-color="#0A0600"/>
<stop offset="0.72" stop-color="#020100"/>
<stop offset="1"/>
</radialGradient>
</defs>
</svg>
