<svg width="48" height="49" viewBox="0 0 48 49" fill="none" xmlns="http://www.w3.org/2000/svg">
<path opacity="0.74" d="M40.4605 35.499H33.6308L30.5523 36.4542L27.2364 35.499H3.6315L0 48.2499H38.1173L40.4605 35.499Z" fill="url(#paint0_linear_78_2354)"/>
<path style="mix-blend-mode:overlay" opacity="0.23" d="M0.758381 45.5869H38.2909L37.7721 48.2497H0L0.758381 45.5869Z" fill="url(#paint1_linear_78_2354)"/>
<path d="M3.63159 35.4987L10.3946 33.4111H40.8667L40.4606 35.4987H33.6309L30.5524 36.4539L27.2365 35.4987H3.63159Z" fill="url(#paint2_linear_78_2354)"/>
<g style="mix-blend-mode:overlay" opacity="0.56">
<path d="M27.1629 35.92L30.497 36.8755L33.5929 35.92H40.3831L40.4605 35.499H33.6314L30.5523 36.4542L27.2365 35.499H3.63154L3.51147 35.92H27.1629Z" fill="white"/>
</g>
<path opacity="0.49" d="M23.8133 34.7923L12.9216 35.4987H3.63159L10.3946 33.4111H20.5368L23.8133 34.7923Z" fill="#000800"/>
<path d="M23.7718 31.1631L22.271 31.2665L20.7702 31.1631C20.7702 31.1631 18.1503 31.3242 15.9395 33.0088C15.9395 33.0088 17.4586 33.6468 22.271 33.6468C27.0834 33.6468 28.6025 33.0088 28.6025 33.0088C26.3917 31.3242 23.7718 31.1631 23.7718 31.1631Z" fill="url(#paint3_linear_78_2354)"/>
<path style="mix-blend-mode:overlay" opacity="0.54" d="M22.2687 33.4346C18.4177 33.4346 16.6763 33.0265 16.1327 32.8633C16.0666 32.9107 16.0005 32.959 15.9348 33.0094C15.9348 33.0094 17.4539 33.6475 22.2664 33.6475C27.0788 33.6475 28.5979 33.0094 28.5979 33.0094C28.5323 32.959 28.4661 32.9107 28.3995 32.8633C27.8606 33.0265 26.1192 33.4346 22.2687 33.4346Z" fill="url(#paint4_linear_78_2354)"/>
<path d="M28.5983 33.0129C28.4947 33.0556 26.9188 33.6488 22.2701 33.6488C17.4557 33.6488 15.9385 33.0107 15.9385 33.0107L15.583 34.0979C15.583 34.0979 17.5528 34.8325 22.2049 34.8458H22.3334C26.9845 34.8325 28.9552 34.0979 28.9552 34.0979L28.5983 33.0129Z" fill="url(#paint5_linear_78_2354)"/>
<path style="mix-blend-mode:screen" d="M24.4089 36.9882C28.3955 36.6947 31.5121 35.1586 31.3701 33.5572C31.2281 31.9559 27.8812 30.8957 23.8946 31.1892C19.908 31.4827 16.7914 33.0189 16.9334 34.6202C17.0754 36.2216 20.4223 37.2818 24.4089 36.9882Z" fill="url(#paint6_radial_78_2354)"/>
<path style="mix-blend-mode:overlay" opacity="0.43" d="M23.9388 31.1789C23.8314 31.1669 23.7713 31.1631 23.7713 31.1631L22.2705 31.2665L20.7697 31.1631C20.7697 31.1631 18.1498 31.3242 15.939 33.0088C18.8299 31.9832 22.8211 31.8084 22.8211 31.8084L23.9388 31.1789Z" fill="url(#paint7_linear_78_2354)"/>
<path opacity="0.37" d="M30.5433 35.0908L27.2363 35.4989L30.5522 36.4541L33.6307 35.4989C33.5243 35.5336 30.5433 35.0908 30.5433 35.0908Z" fill="white"/>
<path d="M24.9172 27.0765C24.6648 27.0282 23.8338 26.9483 22.7687 26.9316H22.7077C22.6608 26.9316 22.6139 26.9316 22.5646 26.9316H22.4671H22.2406H22.143C22.0961 26.9316 22.0492 26.9316 22.0023 26.9316H21.9413C20.8758 26.9492 20.0447 27.0282 19.7928 27.0765C19.7361 27.0838 19.6793 27.0906 19.623 27.0987L20.5493 31.4316C20.5493 31.4316 20.903 31.7415 21.9296 31.8163H21.9582H21.9615C22.0834 31.8252 22.2143 31.8299 22.3536 31.8295C22.4929 31.8291 22.6242 31.8252 22.7457 31.8163H22.7494H22.778C23.8047 31.7415 24.1583 31.4316 24.1583 31.4316L25.0865 27.0987C25.0302 27.0906 24.9739 27.0838 24.9172 27.0765Z" fill="url(#paint8_linear_78_2354)"/>
<path style="mix-blend-mode:overlay" opacity="0.37" d="M23.2227 31.7628C23.9074 31.6482 24.1578 31.4311 24.1578 31.4311L25.086 27.0982C25.0302 27.0901 24.9734 27.0833 24.9167 27.076C24.754 27.0448 24.3483 27.0008 23.7948 26.9688L23.3985 27.1846L23.2227 31.7628Z" fill="url(#paint9_linear_78_2354)"/>
<path style="mix-blend-mode:overlay" opacity="0.43" d="M22.1862 26.9287H22.1435C22.0966 26.9287 22.0497 26.9287 22.0028 26.9287H21.9418C20.8762 26.9462 20.0452 27.0253 19.7933 27.0736C19.7366 27.0808 19.6798 27.0877 19.6235 27.0958L20.5498 31.4313C20.5498 31.4313 20.9034 31.7411 21.9301 31.8159H21.9587H21.962C22.0558 31.8227 22.1576 31.8261 22.2621 31.8279L22.1862 26.9287Z" fill="url(#paint10_linear_78_2354)"/>
<path style="mix-blend-mode:screen" d="M26.202 22.476C37.8303 22.476 47.2569 18.1406 47.2569 12.7927C47.2569 7.44475 37.8303 3.10938 26.202 3.10938C14.5736 3.10938 5.14697 7.44475 5.14697 12.7927C5.14697 18.1406 14.5736 22.476 26.202 22.476Z" fill="url(#paint11_radial_78_2354)"/>
<path style="mix-blend-mode:overlay" opacity="0.37" d="M20.7704 26.8661L17.417 26.7354L17.6407 27.6469C17.6407 27.6469 19.0008 28.0217 20.9575 28.1597L20.7704 26.8661Z" fill="url(#paint12_linear_78_2354)"/>
<path d="M11.6982 17.7764L5.08154 18.9841V19.6229L8.10334 24.5127L10.0225 25.2926L13.5241 24.6648L13.1465 23.4567L10.4418 23.8088L9.16234 23.3332L7.25678 20.346L7.98796 19.452L12.209 19.9477L11.6982 17.7764Z" fill="url(#paint13_linear_78_2354)"/>
<path d="M11.4952 17.1188L7.07809 16.6201L5.08154 18.9842L8.01094 23.9235L9.87101 24.7116L13.2652 24.0769L12.8994 22.8569L10.2776 23.2124L9.03712 22.7321L7.18972 19.7146L7.89885 18.8111L11.9904 19.312L11.4952 17.1188Z" fill="url(#paint14_linear_78_2354)"/>
<g opacity="0.28">
<path d="M9.03759 22.7323L7.29289 19.8818L7.19019 20.0126L9.03759 23.0301L10.2781 23.5105L12.9857 23.1434L12.8998 22.857L10.2781 23.2126L9.03759 22.7323Z" fill="white"/>
<path d="M7.07858 16.918L11.5651 17.4244L11.4957 17.1188L7.07858 16.6201L5.08203 18.9842L5.18568 19.159L7.07858 16.918Z" fill="white"/>
</g>
<g opacity="0.35">
<path d="M10.121 19.702L11.3367 19.8447L10.8423 17.6498L10.7903 17.6601L10.7082 17.2819L10.6524 17.0229L9.61963 16.9062L10.121 19.702Z" fill="black"/>
<path d="M13.0709 24.7108L12.8012 23.5933L12.4833 23.295L12.6868 22.8848L10.7395 23.1489L11.0894 25.101L12.131 24.9143L13.0709 24.7108Z" fill="black"/>
</g>
<path d="M32.7204 17.7764L39.3371 18.9841V19.6229L36.3153 24.5127L34.3961 25.2926L30.8945 24.6648L31.2721 23.4567L33.9768 23.8088L35.2567 23.3332L37.1623 20.346L36.4307 19.452L32.2096 19.9477L32.7204 17.7764Z" fill="url(#paint15_linear_78_2354)"/>
<path d="M32.9236 17.1188L37.3411 16.6201L39.3372 18.9842L36.4078 23.9235L34.5477 24.7116L31.1536 24.0769L31.5194 22.8569L34.1411 23.2124L35.3816 22.7321L37.229 19.7146L36.5199 18.8111L32.4283 19.312L32.9236 17.1188Z" fill="url(#paint16_linear_78_2354)"/>
<g opacity="0.63">
<path d="M35.3819 22.7323L37.1266 19.8818L37.2293 20.0126L35.3819 23.0301L34.1414 23.5105L31.4338 23.1434L31.5197 22.857L34.1414 23.2126L35.3819 22.7323Z" fill="white"/>
<path d="M37.3415 16.918L32.8545 17.4244L32.9239 17.1188L37.3415 16.6201L39.3375 18.9842L39.2339 19.159L37.3415 16.918Z" fill="white"/>
</g>
<g opacity="0.4">
<path d="M33.1882 25.076L33.5817 23.1362L32.2675 22.958L32.193 23.2059L32.0752 23.599L31.996 23.5888L31.6189 24.7948L33.1882 25.076Z" fill="black"/>
<path d="M34.2183 19.712L34.7877 16.9082L33.7483 17.0257L33.7005 17.2377L33.6044 17.6633L33.5429 17.6522L33.0251 19.8522L34.2183 19.712Z" fill="black"/>
</g>
<path d="M34.6336 15.0741C34.6336 14.0805 29.1359 13.2754 22.3537 13.2754C15.5714 13.2754 10.0742 14.0809 10.0742 15.0741C10.0747 15.1144 10.0838 15.1541 10.101 15.1912C10.3228 16.1647 11.8869 22.9737 12.5595 24.3767C13.263 25.8467 17.1341 27.1378 22.1379 27.2083V27.2117C22.2106 27.2117 22.2819 27.2117 22.3537 27.2117C22.4254 27.2117 22.4972 27.2117 22.5694 27.2117V27.2083C27.5737 27.1378 31.4434 25.8467 32.1483 24.3767C32.8209 22.9737 34.385 16.1647 34.6069 15.1912C34.6238 15.1541 34.6329 15.1143 34.6336 15.0741Z" fill="url(#paint17_radial_78_2354)"/>
<path style="mix-blend-mode:screen" d="M33.9569 22.3101C37.7461 18.8575 37.7461 13.2597 33.9569 9.80705C30.1677 6.35442 24.0243 6.35442 20.2351 9.80705C16.446 13.2597 16.446 18.8575 20.2351 22.3101C24.0243 25.7628 30.1677 25.7628 33.9569 22.3101Z" fill="url(#paint18_radial_78_2354)"/>
<path style="mix-blend-mode:screen" d="M33.8617 21.2906C37.6508 17.838 37.6508 12.2402 33.8617 8.78752C30.0725 5.33489 23.9291 5.33489 20.1399 8.78752C16.3508 12.2402 16.3508 17.838 20.1399 21.2906C23.9291 24.7432 30.0725 24.7432 33.8617 21.2906Z" fill="url(#paint19_radial_78_2354)"/>
<path style="mix-blend-mode:screen" d="M29.6051 20.2672C33.3942 16.8145 33.3942 11.2167 29.6051 7.76408C25.8159 4.31145 19.6725 4.31145 15.8833 7.76408C12.0942 11.2167 12.0942 16.8145 15.8833 20.2672C19.6725 23.7198 25.8159 23.7198 29.6051 20.2672Z" fill="url(#paint20_radial_78_2354)"/>
<path style="mix-blend-mode:overlay" d="M26.6793 14.2852C26.6793 14.2852 25.9045 21.4826 25.4252 23.1928C24.9459 24.9031 21.4668 27.2428 17.417 26.7351C18.7968 27.0108 20.3989 27.183 22.1385 27.2078V27.2112C22.2111 27.2112 22.2824 27.2112 22.3542 27.2112C22.4259 27.2112 22.4977 27.2112 22.5699 27.2112V27.2078C24.2518 27.1839 25.8061 27.0219 27.153 26.7621C27.2628 26.7287 29.9755 25.8787 30.6621 23.0963C31.3628 20.2561 32.4809 15.1719 32.4809 15.1719L26.6793 14.2852Z" fill="url(#paint21_linear_78_2354)"/>
<path style="mix-blend-mode:overlay" opacity="0.43" d="M16.3894 23.8749C15.9551 22.8159 14.8946 15.9155 14.5687 13.751C11.8245 14.0809 10.0742 14.5817 10.0742 15.142C10.0746 15.1822 10.0837 15.222 10.101 15.2591C10.3228 16.233 11.8869 23.0416 12.5595 24.4471C13.2377 25.8616 16.8476 27.1095 21.5779 27.2646C17.8128 26.6809 16.9057 25.133 16.3894 23.8749Z" fill="url(#paint22_linear_78_2354)"/>
<path opacity="0.19" d="M10.0742 15.0741C10.0747 15.1144 10.0838 15.1541 10.101 15.1912C10.1718 15.5027 10.3824 16.4109 10.6525 17.548C17.2331 14.3634 32.4823 15.1724 32.4823 15.1724L33.4372 14.298C31.4594 13.6933 27.2407 13.2754 22.3555 13.2754C15.5719 13.2754 10.0742 14.0809 10.0742 15.0741Z" fill="#000018"/>
<path style="mix-blend-mode:overlay" opacity="0.2" d="M22.7774 24.286C22.5241 23.1454 21.7376 14.286 21.7376 14.286L21.648 13.2783C18.3284 13.3091 15.3666 13.5347 13.2805 13.8736V13.9305H13.2857C13.478 13.8997 13.6773 13.8698 13.8837 13.8407L13.939 13.8334L14.1796 13.801L14.264 13.7899C14.3578 13.7779 14.4549 13.7655 14.5525 13.754H14.5689C14.8972 15.9181 15.9552 22.8189 16.3895 23.8779C16.4364 23.9945 16.489 24.1142 16.5457 24.2351L16.5542 24.2522C16.5696 24.2856 16.5856 24.3189 16.6011 24.3518L16.6208 24.3903C16.6339 24.4168 16.6475 24.4433 16.6616 24.4702C16.6705 24.4869 16.6794 24.504 16.6888 24.5206L16.7258 24.5881C16.7371 24.6082 16.7488 24.6283 16.7605 24.6484C16.7722 24.6685 16.783 24.6873 16.7943 24.7065C16.8055 24.7257 16.822 24.7514 16.836 24.774C16.8501 24.7967 16.8571 24.8078 16.8679 24.8249L16.9148 24.8984C16.9247 24.9129 16.9345 24.9279 16.9448 24.9411C16.9631 24.9676 16.9814 24.9941 17.0007 25.0202C17.01 25.033 17.0189 25.0458 17.0288 25.0582C17.0494 25.0864 17.0705 25.1142 17.0921 25.1437L17.1179 25.1757C17.1414 25.2052 17.1648 25.2351 17.1906 25.2646L17.2126 25.2903C17.2394 25.3219 17.267 25.3531 17.2952 25.3843C17.3013 25.3903 17.3069 25.3967 17.313 25.4031C17.3435 25.4364 17.3749 25.4693 17.4068 25.5022L17.4176 25.5129C18.0198 26.1185 18.9386 26.6715 20.4356 27.0398H20.4394C20.5332 27.0624 20.6281 27.0844 20.7241 27.1061H20.7297C20.8266 27.1275 20.9261 27.148 21.028 27.1676C21.4135 27.1886 21.807 27.2031 22.2085 27.2104V27.2138C22.2812 27.2138 22.3525 27.2138 22.4242 27.2138C22.496 27.2138 22.5677 27.2138 22.64 27.2138V27.2104C23.1049 27.2035 23.5583 27.1867 24.0001 27.1599C23.622 26.4245 22.9547 25.0843 22.7774 24.286Z" fill="url(#paint23_linear_78_2354)"/>
<path d="M22.3546 10.5508C14.7745 10.5508 8.63013 11.6892 8.63013 13.0935C8.63074 13.1497 8.64071 13.2054 8.65967 13.2589C8.72487 13.6213 8.89418 14.5551 9.12164 15.77C10.7205 14.6944 16.039 13.9038 22.3546 13.9038C28.6702 13.9038 33.9887 14.6944 35.5875 15.77C35.815 14.5551 35.9843 13.6213 36.0495 13.2589C36.0685 13.2054 36.0784 13.1497 36.079 13.0935C36.079 11.6875 29.9346 10.5508 22.3546 10.5508Z" fill="url(#paint24_radial_78_2354)"/>
<path style="mix-blend-mode:screen" d="M35.361 16.5596C38.6562 13.5571 38.6562 8.68902 35.361 5.68649C32.0659 2.68396 26.7233 2.68396 23.4281 5.68649C20.1329 8.68902 20.1329 13.5571 23.4281 16.5596C26.7233 19.5621 32.0659 19.5621 35.361 16.5596Z" fill="url(#paint25_radial_78_2354)"/>
<path style="mix-blend-mode:overlay" d="M27.9587 10.7715L27.5408 14.0377L28.5412 14.1758C29.8075 14.2879 31.0664 14.4617 32.3124 14.6963L33.1444 14.8112L33.8897 11.7142C32.4541 11.3027 30.3942 10.9736 27.9587 10.7715Z" fill="url(#paint26_linear_78_2354)"/>
<path opacity="0.14" d="M17.4352 10.7197C12.2855 11.0864 8.63013 12.0108 8.63013 13.0941C8.63074 13.1503 8.64071 13.206 8.65967 13.2595C8.72487 13.6219 8.89418 14.5556 9.12164 15.7706C10.3143 14.968 13.5772 14.3244 17.7804 14.0492L17.4352 10.7197Z" fill="black"/>
<path style="mix-blend-mode:overlay" d="M22.3551 10.5508C14.775 10.5508 8.63062 11.6892 8.63062 13.0935C8.63123 13.1497 8.64119 13.2054 8.66016 13.2589C8.66345 13.2781 8.66767 13.3016 8.67142 13.3217C9.2164 12.0102 15.1348 10.9773 22.3551 10.9773C29.5754 10.9773 35.4937 12.0102 36.0387 13.3217C36.0425 13.2995 36.0467 13.279 36.05 13.2589C36.0689 13.2054 36.0789 13.1497 36.0795 13.0935C36.0795 11.6875 29.9351 10.5508 22.3551 10.5508Z" fill="url(#paint27_linear_78_2354)"/>
<path opacity="0.35" d="M22.2579 13.4639C11.377 13.4639 9.4194 14.9959 9.16005 15.5536C9.12747 15.6177 9.12083 15.6902 9.14128 15.7583C10.7617 14.6899 16.0628 13.904 22.3545 13.904C28.6462 13.904 33.9445 14.6882 35.5664 15.7575C35.5866 15.6896 35.5799 15.6174 35.5476 15.5536C35.2882 14.9959 33.1388 13.4639 22.2579 13.4639Z" fill="url(#paint28_linear_78_2354)"/>
<path d="M35.5477 15.6359C35.2884 15.1407 33.1389 13.7812 22.258 13.7812C11.3771 13.7812 9.41952 15.1428 9.15969 15.6381C8.89987 16.1334 10.3571 16.2983 10.3571 16.2983L10.2046 15.6359C13.8887 14.5505 20.1635 14.4445 22.3546 14.4424C24.5458 14.4402 30.8211 14.5505 34.5051 15.6359L34.3518 16.2962C34.3518 16.2962 35.8071 16.1317 35.5477 15.6359Z" fill="url(#paint29_linear_78_2354)"/>
<path opacity="0.14" d="M21.6631 24.9614C24.2164 24.9183 26.2479 22.9974 26.2007 20.6709C26.1534 18.3444 24.0453 16.4933 21.492 16.5363C18.9387 16.5794 16.9072 18.5003 16.9544 20.8268C17.0017 23.1533 19.1098 25.0044 21.6631 24.9614Z" fill="black"/>
<path d="M22.1725 24.5652C24.7262 24.5652 26.7964 22.6788 26.7964 20.3519C26.7964 18.025 24.7262 16.1387 22.1725 16.1387C19.6188 16.1387 17.5486 18.025 17.5486 20.3519C17.5486 22.6788 19.6188 24.5652 22.1725 24.5652Z" fill="url(#paint30_linear_78_2354)"/>
<path d="M25.2061 22.8119C26.8815 21.2854 26.8815 18.8103 25.2061 17.2838C23.5308 15.7572 20.8145 15.7572 19.1392 17.2838C17.4638 18.8103 17.4638 21.2854 19.1392 22.8119C20.8145 24.3385 23.5308 24.3385 25.2061 22.8119Z" fill="url(#paint31_linear_78_2354)"/>
<path style="mix-blend-mode:overlay" d="M22.172 16.1396C21.5396 16.1395 20.9149 16.2667 20.3428 16.5123C19.7707 16.758 19.2653 17.1158 18.8628 17.5603C18.4603 18.0048 18.1706 18.5249 18.0146 19.0833C17.8586 19.6418 17.8401 20.2248 17.9603 20.7905C17.8471 20.0742 17.9646 19.3433 18.2986 18.6866C18.6326 18.03 19.1688 17.4759 19.8419 17.0917C20.515 16.7075 21.2961 16.5097 22.0903 16.5224C22.8844 16.535 23.6574 16.7576 24.3154 17.1631C24.9733 17.5685 25.4878 18.1394 25.7964 18.8063C26.105 19.4732 26.1944 20.2074 26.0536 20.9196C25.9129 21.6319 25.5481 22.2916 25.0037 22.8186C24.4592 23.3455 23.7585 23.717 22.9867 23.8879C24.0343 23.7035 24.9689 23.17 25.608 22.3915C26.2471 21.6129 26.5448 20.6453 26.4431 19.6775C26.3413 18.7097 25.8473 17.8112 25.0575 17.1574C24.2678 16.5036 23.239 16.1415 22.172 16.1418V16.1396Z" fill="url(#paint32_linear_78_2354)"/>
<path d="M22.1729 16.1396V20.908L26.3911 20.7572C26.5053 20.1934 26.482 19.6137 26.3228 19.0591C26.1635 18.5046 25.8723 17.9887 25.4697 17.5482C25.0671 17.1077 24.563 16.7533 23.9933 16.5103C23.4235 16.2672 22.802 16.1414 22.1729 16.1418V16.1396Z" fill="url(#paint33_linear_78_2354)"/>
<path style="mix-blend-mode:overlay" d="M24.316 20.103L23.2974 17.7949H20.2873L19.8793 19.168H21.5583L21.7872 19.6851L19.793 21.7223V23.1235H23.6754V21.9261H22.3153L24.316 20.103Z" fill="url(#paint34_linear_78_2354)"/>
<path d="M20.058 18.9184H21.6507L21.9462 19.5855L19.9299 21.6449V22.874H23.5384V21.9261H21.9846L24.1552 19.9483L23.2045 17.7949H20.3919L20.058 18.9184Z" fill="url(#paint35_linear_78_2354)"/>
<g opacity="0.48">
<path d="M21.9457 19.5859L19.9294 21.6453V21.9526L21.9457 19.8932V19.5859Z" fill="black"/>
<path d="M20.3915 18.1022H23.2042L24.0582 20.0364L24.1548 19.9483L23.2042 17.7949H20.3915L20.0576 18.9184H20.1491L20.3915 18.1022Z" fill="black"/>
<path d="M23.5379 21.9258H21.9841V22.233H23.5379V21.9258Z" fill="black"/>
</g>
<path style="mix-blend-mode:screen" d="M27.8273 34.9488C27.2008 36.4573 25.381 37.2949 23.7634 36.8197C22.1458 36.3445 21.3401 34.7377 21.9657 33.23C22.5914 31.7223 24.4125 30.8847 26.0297 31.3595C27.6468 31.8343 28.4539 33.4394 27.8273 34.9488Z" fill="url(#paint36_radial_78_2354)"/>
<path style="mix-blend-mode:screen" d="M19.3032 39.23C19.08 39.0275 20.3819 37.4941 22.2054 35.8053C24.0289 34.1164 25.6925 32.9121 25.9152 33.1151C26.138 33.3181 24.8389 34.8501 23.0131 36.5394C21.1872 38.2288 19.5288 39.433 19.3032 39.23Z" fill="url(#paint37_radial_78_2354)"/>
<path style="mix-blend-mode:screen" d="M30.5921 28.9456C30.3698 28.7421 28.6875 29.9285 26.834 31.5896C24.9805 33.2507 23.6588 34.7669 23.8792 34.9699C24.0997 35.1729 25.7834 33.9896 27.6369 32.3259C29.4904 30.6622 30.8144 29.1494 30.5921 28.9456Z" fill="url(#paint38_radial_78_2354)"/>
<path style="mix-blend-mode:screen" d="M30.2544 38.9211C30.0044 39.1497 28.3901 38.0724 26.6496 36.5143C24.9092 34.9561 23.701 33.5083 23.9519 33.2796C24.2028 33.051 25.8157 34.1271 27.5567 35.6852C29.2976 37.2433 30.5053 38.6916 30.2544 38.9211Z" fill="url(#paint39_radial_78_2354)"/>
<path style="mix-blend-mode:screen" d="M19.67 29.2762C19.4182 29.5035 20.601 30.9749 22.3105 32.5603C24.02 34.1458 25.6095 35.2471 25.8604 35.0189C26.1113 34.7907 24.9304 33.3202 23.2204 31.7339C21.5104 30.1475 19.9209 29.0475 19.67 29.2762Z" fill="url(#paint40_radial_78_2354)"/>
<path style="mix-blend-mode:screen" d="M35.7334 13.3603C35.1068 14.8689 33.2876 15.7065 31.6695 15.2313C30.0515 14.7561 29.2462 13.1497 29.8723 11.6415C30.4984 10.1334 32.3186 9.29581 33.9357 9.77059C35.5529 10.2454 36.36 11.8522 35.7334 13.3603Z" fill="url(#paint41_radial_78_2354)"/>
<path style="mix-blend-mode:screen" d="M27.2111 17.6415C26.9884 17.4389 28.2875 15.9056 30.1133 14.2171C31.9392 12.5287 33.6004 11.324 33.8232 11.5248C34.0459 11.7257 32.7473 13.2598 30.921 14.9492C29.0947 16.6385 27.4349 17.8445 27.2111 17.6415Z" fill="url(#paint42_radial_78_2354)"/>
<path style="mix-blend-mode:screen" d="M38.4981 7.35661C38.2758 7.15361 36.5935 8.33951 34.74 10.001C32.8865 11.6626 31.5648 13.178 31.7852 13.381C32.0057 13.584 33.6894 12.4006 35.5429 10.7374C37.3964 9.07413 38.7199 7.56088 38.4981 7.35661Z" fill="url(#paint43_radial_78_2354)"/>
<path style="mix-blend-mode:screen" d="M38.1604 17.3328C37.9104 17.5618 36.2961 16.4841 34.5556 14.9264C32.8152 13.3687 31.607 11.9204 31.8579 11.6918C32.1088 11.4631 33.7218 12.5392 35.4627 14.0969C37.2036 15.6546 38.4113 17.1037 38.1604 17.3328Z" fill="url(#paint44_radial_78_2354)"/>
<path style="mix-blend-mode:screen" d="M27.576 7.68729C27.3242 7.91507 28.507 9.38601 30.2165 10.9719C31.926 12.5578 33.5155 13.6582 33.7669 13.43C34.0183 13.2018 32.8364 11.7313 31.1264 10.145C29.4164 8.55866 27.827 7.45866 27.576 7.68729Z" fill="url(#paint45_radial_78_2354)"/>
<defs>
<linearGradient id="paint0_linear_78_2354" x1="32.0358" y1="53.9417" x2="3.44541" y2="18.7433" gradientUnits="userSpaceOnUse">
<stop offset="0.01" stop-color="#606A7D"/>
<stop offset="1" stop-color="#AEBACA"/>
</linearGradient>
<linearGradient id="paint1_linear_78_2354" x1="0" y1="46.9185" x2="38.2909" y2="46.9185" gradientUnits="userSpaceOnUse">
<stop/>
<stop offset="1"/>
</linearGradient>
<linearGradient id="paint2_linear_78_2354" x1="38.7342" y1="34.9325" x2="13.589" y2="34.9325" gradientUnits="userSpaceOnUse">
<stop stop-color="#CAD2E0"/>
<stop offset="1" stop-color="#A8B4CA"/>
</linearGradient>
<linearGradient id="paint3_linear_78_2354" x1="28.4079" y1="32.405" x2="18.436" y2="32.405" gradientUnits="userSpaceOnUse">
<stop offset="0.04" stop-color="#BCC8DC"/>
<stop offset="0.96" stop-color="#444C54"/>
<stop offset="1" stop-color="#404850"/>
</linearGradient>
<linearGradient id="paint4_linear_78_2354" x1="27.5544" y1="33.2552" x2="17.5651" y2="33.2552" gradientUnits="userSpaceOnUse">
<stop stop-color="#FEFEFF"/>
<stop offset="1" stop-color="white"/>
</linearGradient>
<linearGradient id="paint5_linear_78_2354" x1="26.841" y1="33.9274" x2="15.2655" y2="33.9274" gradientUnits="userSpaceOnUse">
<stop stop-color="#98A2B2"/>
<stop offset="0.17" stop-color="#D8E4E4"/>
<stop offset="1" stop-color="#282A32"/>
</linearGradient>
<radialGradient id="paint6_radial_78_2354" cx="0" cy="0" r="1" gradientUnits="userSpaceOnUse" gradientTransform="translate(24.161 34.1133) rotate(-4.21123) scale(7.19937 2.89304)">
<stop stop-color="#98A2C6"/>
<stop offset="0.03" stop-color="#8891B1"/>
<stop offset="0.1" stop-color="#686F88"/>
<stop offset="0.18" stop-color="#4C5163"/>
<stop offset="0.27" stop-color="#353844"/>
<stop offset="0.36" stop-color="#21232B"/>
<stop offset="0.46" stop-color="#121418"/>
<stop offset="0.58" stop-color="#08080A"/>
<stop offset="0.72" stop-color="#020202"/>
<stop offset="1"/>
</radialGradient>
<linearGradient id="paint7_linear_78_2354" x1="20.7003" y1="31.7144" x2="15.2866" y2="33.5427" gradientUnits="userSpaceOnUse">
<stop/>
<stop offset="1"/>
</linearGradient>
<linearGradient id="paint8_linear_78_2354" x1="25.1587" y1="29.3804" x2="19.2938" y2="29.3804" gradientUnits="userSpaceOnUse">
<stop offset="0.09" stop-color="#9CAAB2"/>
<stop offset="0.23" stop-color="#89969E"/>
<stop offset="0.57" stop-color="#616C74"/>
<stop offset="0.84" stop-color="#49525A"/>
<stop offset="1" stop-color="#404850"/>
</linearGradient>
<linearGradient id="paint9_linear_78_2354" x1="24.1546" y1="26.0995" x2="24.1546" y2="30.7982" gradientUnits="userSpaceOnUse">
<stop stop-color="#FEFEBE"/>
<stop offset="1" stop-color="white"/>
</linearGradient>
<linearGradient id="paint10_linear_78_2354" x1="20.9419" y1="27.3326" x2="20.9419" y2="30.6732" gradientUnits="userSpaceOnUse">
<stop/>
<stop offset="1"/>
</linearGradient>
<radialGradient id="paint11_radial_78_2354" cx="0" cy="0" r="1" gradientUnits="userSpaceOnUse" gradientTransform="translate(26.1888 12.8641) scale(20.9145 9.62478)">
<stop stop-color="#8AA6CA"/>
<stop offset="0.04" stop-color="#7992B1"/>
<stop offset="0.11" stop-color="#5D7088"/>
<stop offset="0.19" stop-color="#445263"/>
<stop offset="0.27" stop-color="#2F3844"/>
<stop offset="0.36" stop-color="#1E242B"/>
<stop offset="0.46" stop-color="#101418"/>
<stop offset="0.58" stop-color="#07080A"/>
<stop offset="0.73" stop-color="#020202"/>
<stop offset="1"/>
</radialGradient>
<linearGradient id="paint12_linear_78_2354" x1="19.187" y1="26.4648" x2="19.187" y2="30.8811" gradientUnits="userSpaceOnUse">
<stop/>
<stop offset="1"/>
</linearGradient>
<linearGradient id="paint13_linear_78_2354" x1="10.3255" y1="17.0029" x2="8.66859" y2="26.4129" gradientUnits="userSpaceOnUse">
<stop stop-color="#626E7A"/>
<stop offset="1" stop-color="#282A32"/>
</linearGradient>
<linearGradient id="paint14_linear_78_2354" x1="13.3144" y1="21.1052" x2="-2.63012" y2="19.3612" gradientUnits="userSpaceOnUse">
<stop offset="0.09" stop-color="#9CAAB2"/>
<stop offset="1" stop-color="#404850"/>
</linearGradient>
<linearGradient id="paint15_linear_78_2354" x1="35.116" y1="10.7242" x2="35.116" y2="34.8845" gradientUnits="userSpaceOnUse">
<stop stop-color="#6C829C"/>
<stop offset="1" stop-color="#282A32"/>
</linearGradient>
<linearGradient id="paint16_linear_78_2354" x1="25.7671" y1="19.7385" x2="42.3007" y2="21.5528" gradientUnits="userSpaceOnUse">
<stop stop-color="#ECFEF4"/>
<stop offset="0.29" stop-color="#CED8D4"/>
<stop offset="0.83" stop-color="#8A9498"/>
<stop offset="1" stop-color="#50565C"/>
</linearGradient>
<radialGradient id="paint17_radial_78_2354" cx="0" cy="0" r="1" gradientUnits="userSpaceOnUse" gradientTransform="translate(26.0189 16.3737) scale(16.3917 14.9359)">
<stop stop-color="#FAFEF4"/>
<stop offset="0.29" stop-color="#CED8D4"/>
<stop offset="0.71" stop-color="#8A9498"/>
<stop offset="1" stop-color="#50565C"/>
</radialGradient>
<radialGradient id="paint18_radial_78_2354" cx="0" cy="0" r="1" gradientUnits="userSpaceOnUse" gradientTransform="translate(27.0962 16.124) scale(9.64412 8.7876)">
<stop stop-color="#E0E4FF"/>
<stop offset="0.04" stop-color="#C6CAE2"/>
<stop offset="0.1" stop-color="#9DA0B3"/>
<stop offset="0.17" stop-color="#787A88"/>
<stop offset="0.24" stop-color="#575963"/>
<stop offset="0.32" stop-color="#3C3D44"/>
<stop offset="0.41" stop-color="#26272B"/>
<stop offset="0.5" stop-color="#151518"/>
<stop offset="0.61" stop-color="#09090A"/>
<stop offset="0.74" stop-color="#020202"/>
<stop offset="1"/>
</radialGradient>
<radialGradient id="paint19_radial_78_2354" cx="0" cy="0" r="1" gradientUnits="userSpaceOnUse" gradientTransform="translate(27.0009 15.1043) scale(9.64412 8.7876)">
<stop stop-color="#E0E4FF"/>
<stop offset="0.04" stop-color="#C6CAE2"/>
<stop offset="0.1" stop-color="#9DA0B3"/>
<stop offset="0.17" stop-color="#787A88"/>
<stop offset="0.24" stop-color="#575963"/>
<stop offset="0.32" stop-color="#3C3D44"/>
<stop offset="0.41" stop-color="#26272B"/>
<stop offset="0.5" stop-color="#151518"/>
<stop offset="0.61" stop-color="#09090A"/>
<stop offset="0.74" stop-color="#020202"/>
<stop offset="1"/>
</radialGradient>
<radialGradient id="paint20_radial_78_2354" cx="0" cy="0" r="1" gradientUnits="userSpaceOnUse" gradientTransform="translate(22.7442 14.0811) scale(9.64412 8.7876)">
<stop offset="0.01" stop-color="#9F95B1"/>
<stop offset="0.09" stop-color="#7A7287"/>
<stop offset="0.17" stop-color="#595463"/>
<stop offset="0.25" stop-color="#3E3A44"/>
<stop offset="0.34" stop-color="#27252B"/>
<stop offset="0.45" stop-color="#161418"/>
<stop offset="0.57" stop-color="#09090A"/>
<stop offset="0.72" stop-color="#020202"/>
<stop offset="1"/>
</radialGradient>
<linearGradient id="paint21_linear_78_2354" x1="24.9487" y1="14.3125" x2="24.9487" y2="23.3001" gradientUnits="userSpaceOnUse">
<stop stop-color="#F2ECFF"/>
<stop offset="1" stop-color="white"/>
</linearGradient>
<linearGradient id="paint22_linear_78_2354" x1="13.9759" y1="17.5723" x2="16.3852" y2="25.3624" gradientUnits="userSpaceOnUse">
<stop/>
<stop offset="1"/>
</linearGradient>
<linearGradient id="paint23_linear_78_2354" x1="17.7234" y1="14.933" x2="19.2242" y2="24.1791" gradientUnits="userSpaceOnUse">
<stop/>
<stop offset="1"/>
</linearGradient>
<radialGradient id="paint24_radial_78_2354" cx="0" cy="0" r="1" gradientUnits="userSpaceOnUse" gradientTransform="translate(29.2428 12.6354) scale(24.7348 22.538)">
<stop stop-color="#ECFEF4"/>
<stop offset="0.29" stop-color="#CED8D4"/>
<stop offset="0.55" stop-color="#8A9498"/>
<stop offset="1" stop-color="#50565C"/>
</radialGradient>
<radialGradient id="paint25_radial_78_2354" cx="0" cy="0" r="1" gradientUnits="userSpaceOnUse" gradientTransform="translate(29.3945 11.1799) scale(8.38719 7.6423)">
<stop offset="0.01" stop-color="#D2CAFF"/>
<stop offset="0.04" stop-color="#BAB3E2"/>
<stop offset="0.11" stop-color="#938EB3"/>
<stop offset="0.17" stop-color="#706C88"/>
<stop offset="0.25" stop-color="#524F63"/>
<stop offset="0.32" stop-color="#383644"/>
<stop offset="0.41" stop-color="#24222B"/>
<stop offset="0.5" stop-color="#141318"/>
<stop offset="0.61" stop-color="#08080A"/>
<stop offset="0.74" stop-color="#020202"/>
<stop offset="1"/>
</radialGradient>
<linearGradient id="paint26_linear_78_2354" x1="30.7155" y1="10.6364" x2="30.7155" y2="14.2958" gradientUnits="userSpaceOnUse">
<stop stop-color="#FEFEBE"/>
<stop offset="1" stop-color="white"/>
</linearGradient>
<linearGradient id="paint27_linear_78_2354" x1="8.63062" y1="11.9362" x2="36.0795" y2="11.9362" gradientUnits="userSpaceOnUse">
<stop stop-color="#FEFEFF"/>
<stop offset="0.12" stop-color="#FEFEFF"/>
<stop offset="0.54" stop-color="#FEFEFF"/>
<stop offset="1" stop-color="#FEFEFF"/>
</linearGradient>
<linearGradient id="paint28_linear_78_2354" x1="30.2957" y1="14.6109" x2="18.0078" y2="14.6109" gradientUnits="userSpaceOnUse">
<stop stop-color="#6A7882"/>
<stop offset="0.22" stop-color="#65737D"/>
<stop offset="0.49" stop-color="#58636D"/>
<stop offset="0.8" stop-color="#424953"/>
<stop offset="1" stop-color="#30343E"/>
</linearGradient>
<linearGradient id="paint29_linear_78_2354" x1="30.2963" y1="15.0377" x2="18.0079" y2="15.0377" gradientUnits="userSpaceOnUse">
<stop stop-color="#828C9A"/>
<stop offset="0.4" stop-color="#636B78"/>
<stop offset="1" stop-color="#30343E"/>
</linearGradient>
<linearGradient id="paint30_linear_78_2354" x1="24.4209" y1="17.7139" x2="20.7988" y2="22.833" gradientUnits="userSpaceOnUse">
<stop stop-color="#8A9498"/>
<stop offset="1" stop-color="#50565C"/>
</linearGradient>
<linearGradient id="paint31_linear_78_2354" x1="24.3214" y1="16.6861" x2="19.5975" y2="25.588" gradientUnits="userSpaceOnUse">
<stop stop-color="#E6EAEC"/>
<stop offset="0.71" stop-color="#8A9498"/>
<stop offset="1" stop-color="#50565C"/>
</linearGradient>
<linearGradient id="paint32_linear_78_2354" x1="24.3224" y1="16.6845" x2="20.1823" y2="24.4857" gradientUnits="userSpaceOnUse">
<stop stop-color="#FEFEFF"/>
<stop offset="0.12" stop-color="#FEFEFF"/>
<stop offset="0.54" stop-color="#FEFEFF"/>
<stop offset="1" stop-color="#FEFEFF"/>
</linearGradient>
<linearGradient id="paint33_linear_78_2354" x1="25.5225" y1="16.9384" x2="23.1891" y2="20.3593" gradientUnits="userSpaceOnUse">
<stop stop-color="#F2ECFF"/>
<stop offset="0.48" stop-color="#FAF8FF"/>
<stop offset="1" stop-color="white"/>
</linearGradient>
<linearGradient id="paint34_linear_78_2354" x1="22.0925" y1="21.9924" x2="21.7185" y2="17.504" gradientUnits="userSpaceOnUse">
<stop stop-color="#FEFEFF"/>
<stop offset="0.12" stop-color="#FEFEFF"/>
<stop offset="0.54" stop-color="#FEFEFF"/>
<stop offset="1" stop-color="#FEFEFF"/>
</linearGradient>
<linearGradient id="paint35_linear_78_2354" x1="22.0423" y1="24.3129" x2="22.0423" y2="18.8791" gradientUnits="userSpaceOnUse">
<stop stop-color="#6A7882"/>
<stop offset="0.37" stop-color="#505963"/>
<stop offset="0.77" stop-color="#393E48"/>
<stop offset="1" stop-color="#30343E"/>
</linearGradient>
<radialGradient id="paint36_radial_78_2354" cx="0" cy="0" r="1" gradientUnits="userSpaceOnUse" gradientTransform="translate(24.9856 34.4247) rotate(16.3959) scale(3.04172 2.94791)">
<stop stop-color="white"/>
<stop offset="0.03" stop-color="#E4E4E4"/>
<stop offset="0.1" stop-color="#B5B5B5"/>
<stop offset="0.17" stop-color="#8A8A8A"/>
<stop offset="0.24" stop-color="#646464"/>
<stop offset="0.32" stop-color="#454545"/>
<stop offset="0.41" stop-color="#2C2C2C"/>
<stop offset="0.51" stop-color="#181818"/>
<stop offset="0.62" stop-color="#0A0A0A"/>
<stop offset="0.75" stop-color="#020202"/>
<stop offset="1"/>
</radialGradient>
<radialGradient id="paint37_radial_78_2354" cx="0" cy="0" r="1" gradientUnits="userSpaceOnUse" gradientTransform="translate(22.9468 36.2902) rotate(137.14) scale(4.50018 0.545654)">
<stop stop-color="#F5F606"/>
<stop offset="0.03" stop-color="#C5C823"/>
<stop offset="0.06" stop-color="#9DA23B"/>
<stop offset="0.09" stop-color="#7E844E"/>
<stop offset="0.11" stop-color="#686F5B"/>
<stop offset="0.14" stop-color="#5B6263"/>
<stop offset="0.16" stop-color="#565E66"/>
<stop offset="0.24" stop-color="#40464C"/>
<stop offset="0.35" stop-color="#292D31"/>
<stop offset="0.48" stop-color="#17191B"/>
<stop offset="0.61" stop-color="#0A0B0C"/>
<stop offset="0.77" stop-color="#020303"/>
<stop offset="1"/>
</radialGradient>
<radialGradient id="paint38_radial_78_2354" cx="0" cy="0" r="1" gradientUnits="userSpaceOnUse" gradientTransform="translate(27.2574 32.1184) rotate(-41.8196) scale(4.5078 0.544732)">
<stop stop-color="#F5F606"/>
<stop offset="0.03" stop-color="#C5C823"/>
<stop offset="0.06" stop-color="#9DA23B"/>
<stop offset="0.09" stop-color="#7E844E"/>
<stop offset="0.11" stop-color="#686F5B"/>
<stop offset="0.14" stop-color="#5B6263"/>
<stop offset="0.16" stop-color="#565E66"/>
<stop offset="0.24" stop-color="#40464C"/>
<stop offset="0.35" stop-color="#292D31"/>
<stop offset="0.48" stop-color="#17191B"/>
<stop offset="0.61" stop-color="#0A0B0C"/>
<stop offset="0.77" stop-color="#020303"/>
<stop offset="1"/>
</radialGradient>
<radialGradient id="paint39_radial_78_2354" cx="0" cy="0" r="1" gradientUnits="userSpaceOnUse" gradientTransform="translate(28.3413 35.1146) rotate(41.786) scale(4.23402 0.599169)">
<stop stop-color="#F5F606"/>
<stop offset="0.03" stop-color="#C5C823"/>
<stop offset="0.06" stop-color="#9DA23B"/>
<stop offset="0.09" stop-color="#7E844E"/>
<stop offset="0.11" stop-color="#686F5B"/>
<stop offset="0.14" stop-color="#5B6263"/>
<stop offset="0.16" stop-color="#565E66"/>
<stop offset="0.24" stop-color="#40464C"/>
<stop offset="0.35" stop-color="#292D31"/>
<stop offset="0.48" stop-color="#17191B"/>
<stop offset="0.61" stop-color="#0A0B0C"/>
<stop offset="0.77" stop-color="#020303"/>
<stop offset="1"/>
</radialGradient>
<radialGradient id="paint40_radial_78_2354" cx="0" cy="0" r="1" gradientUnits="userSpaceOnUse" gradientTransform="translate(23.8009 31.0258) rotate(-137.106) scale(4.22641 0.600249)">
<stop stop-color="#F5F606"/>
<stop offset="0.03" stop-color="#C5C823"/>
<stop offset="0.06" stop-color="#9DA23B"/>
<stop offset="0.09" stop-color="#7E844E"/>
<stop offset="0.11" stop-color="#686F5B"/>
<stop offset="0.14" stop-color="#5B6263"/>
<stop offset="0.16" stop-color="#565E66"/>
<stop offset="0.24" stop-color="#40464C"/>
<stop offset="0.35" stop-color="#292D31"/>
<stop offset="0.48" stop-color="#17191B"/>
<stop offset="0.61" stop-color="#0A0B0C"/>
<stop offset="0.77" stop-color="#020303"/>
<stop offset="1"/>
</radialGradient>
<radialGradient id="paint41_radial_78_2354" cx="0" cy="0" r="1" gradientUnits="userSpaceOnUse" gradientTransform="translate(32.8269 12.7501) rotate(16.3959) scale(3.04172 2.94791)">
<stop stop-color="white"/>
<stop offset="0.03" stop-color="#E4E4E4"/>
<stop offset="0.1" stop-color="#B5B5B5"/>
<stop offset="0.17" stop-color="#8A8A8A"/>
<stop offset="0.24" stop-color="#646464"/>
<stop offset="0.32" stop-color="#454545"/>
<stop offset="0.41" stop-color="#2C2C2C"/>
<stop offset="0.51" stop-color="#181818"/>
<stop offset="0.62" stop-color="#0A0A0A"/>
<stop offset="0.75" stop-color="#020202"/>
<stop offset="1"/>
</radialGradient>
<radialGradient id="paint42_radial_78_2354" cx="0" cy="0" r="1" gradientUnits="userSpaceOnUse" gradientTransform="translate(30.8096 14.646) rotate(137.14) scale(4.50018 0.545654)">
<stop stop-color="#F5F606"/>
<stop offset="0.03" stop-color="#C5C823"/>
<stop offset="0.06" stop-color="#9DA23B"/>
<stop offset="0.09" stop-color="#7E844E"/>
<stop offset="0.11" stop-color="#686F5B"/>
<stop offset="0.14" stop-color="#5B6263"/>
<stop offset="0.16" stop-color="#565E66"/>
<stop offset="0.24" stop-color="#40464C"/>
<stop offset="0.35" stop-color="#292D31"/>
<stop offset="0.48" stop-color="#17191B"/>
<stop offset="0.61" stop-color="#0A0B0C"/>
<stop offset="0.77" stop-color="#020303"/>
<stop offset="1"/>
</radialGradient>
<radialGradient id="paint43_radial_78_2354" cx="0" cy="0" r="1" gradientUnits="userSpaceOnUse" gradientTransform="translate(35.1455 10.5475) rotate(-41.8196) scale(4.5078 0.544732)">
<stop stop-color="#F5F606"/>
<stop offset="0.03" stop-color="#C5C823"/>
<stop offset="0.06" stop-color="#9DA23B"/>
<stop offset="0.09" stop-color="#7E844E"/>
<stop offset="0.11" stop-color="#686F5B"/>
<stop offset="0.14" stop-color="#5B6263"/>
<stop offset="0.16" stop-color="#565E66"/>
<stop offset="0.24" stop-color="#40464C"/>
<stop offset="0.35" stop-color="#292D31"/>
<stop offset="0.48" stop-color="#17191B"/>
<stop offset="0.61" stop-color="#0A0B0C"/>
<stop offset="0.77" stop-color="#020303"/>
<stop offset="1"/>
</radialGradient>
<radialGradient id="paint44_radial_78_2354" cx="0" cy="0" r="1" gradientUnits="userSpaceOnUse" gradientTransform="translate(35.9352 13.8334) rotate(41.786) scale(4.23402 0.599169)">
<stop stop-color="#F5F606"/>
<stop offset="0.03" stop-color="#C5C823"/>
<stop offset="0.06" stop-color="#9DA23B"/>
<stop offset="0.09" stop-color="#7E844E"/>
<stop offset="0.11" stop-color="#686F5B"/>
<stop offset="0.14" stop-color="#5B6263"/>
<stop offset="0.16" stop-color="#565E66"/>
<stop offset="0.24" stop-color="#40464C"/>
<stop offset="0.35" stop-color="#292D31"/>
<stop offset="0.48" stop-color="#17191B"/>
<stop offset="0.61" stop-color="#0A0B0C"/>
<stop offset="0.77" stop-color="#020303"/>
<stop offset="1"/>
</radialGradient>
<radialGradient id="paint45_radial_78_2354" cx="0" cy="0" r="1" gradientUnits="userSpaceOnUse" gradientTransform="translate(31.3686 9.69145) rotate(-137.106) scale(4.22641 0.600249)">
<stop stop-color="#F5F606"/>
<stop offset="0.03" stop-color="#C5C823"/>
<stop offset="0.06" stop-color="#9DA23B"/>
<stop offset="0.09" stop-color="#7E844E"/>
<stop offset="0.11" stop-color="#686F5B"/>
<stop offset="0.14" stop-color="#5B6263"/>
<stop offset="0.16" stop-color="#565E66"/>
<stop offset="0.24" stop-color="#40464C"/>
<stop offset="0.35" stop-color="#292D31"/>
<stop offset="0.48" stop-color="#17191B"/>
<stop offset="0.61" stop-color="#0A0B0C"/>
<stop offset="0.77" stop-color="#020303"/>
<stop offset="1"/>
</radialGradient>
</defs>
</svg>
