<svg width="48" height="49" viewBox="0 0 48 49" fill="none" xmlns="http://www.w3.org/2000/svg">
<path d="M0 13.5C0 6.3203 5.8203 0.5 13 0.5H35C42.1797 0.5 48 6.3203 48 13.5V35.5C48 42.6797 42.1797 48.5 35 48.5H13C5.8203 48.5 0 42.6797 0 35.5V13.5Z" fill="white"/>
<path fill-rule="evenodd" clip-rule="evenodd" d="M14.4827 7.24817C14.9965 7.19355 15.3687 6.73399 15.3139 6.22171C15.2591 5.70942 14.7981 5.33842 14.2843 5.39303L12.3734 5.59615C11.3944 5.7002 10.6092 5.78366 9.97152 5.89893C9.31452 6.01768 8.75152 6.18 8.22862 6.47217C7.37952 6.94654 6.67572 7.64166 6.19222 8.48345C5.89442 9.00203 5.72672 9.56164 5.60202 10.215C5.48102 10.8492 5.39082 11.6305 5.27832 12.6044L5.27352 12.6464L5.08582 14.5067C5.03412 15.0193 5.40902 15.4766 5.92322 15.5281C6.43732 15.5797 6.89612 15.2059 6.94782 14.6933L7.13402 12.8464C7.25112 11.8327 7.33402 11.1214 7.44042 10.5637C7.54482 10.0162 7.66142 9.67994 7.81622 9.41048C8.13112 8.86206 8.58982 8.40896 9.14342 8.09966C9.41562 7.94761 9.75452 7.8342 10.3053 7.73465C10.8677 7.633 11.5847 7.5562 12.6071 7.44752L14.4827 7.24817ZM32.686 6.22172C32.6312 6.734 33.0033 7.19357 33.5172 7.24818L35.3927 7.44754C36.4152 7.55622 37.1322 7.63302 37.6946 7.73467C38.2454 7.83422 38.5843 7.94763 38.8565 8.09968C39.41 8.40898 39.8687 8.86208 40.1837 9.4105C40.3385 9.67996 40.455 10.0163 40.5595 10.5637C40.6659 11.1214 40.7487 11.8327 40.8658 12.8464L41.0521 14.6934C41.1038 15.2059 41.5625 15.5797 42.0767 15.5282C42.5909 15.4766 42.9658 15.0193 42.9141 14.5067L42.7264 12.6464L42.7216 12.6044C42.6091 11.6305 42.5188 10.8492 42.3979 10.2151C42.2732 9.56166 42.1055 9.00205 41.8077 8.48347C41.3242 7.64168 40.6203 6.94655 39.7713 6.47219C39.2484 6.18002 38.6854 6.0177 38.0284 5.89895C37.3907 5.78368 36.6055 5.70022 35.6265 5.59617L33.7156 5.39305C33.2017 5.33843 32.7408 5.70944 32.686 6.22172ZM32.686 42.2783C32.6312 41.766 33.0033 41.3065 33.5172 41.2518L35.3927 41.0525C36.4152 40.9438 37.1322 40.867 37.6946 40.7654C38.2454 40.6658 38.5843 40.5524 38.8565 40.4003C39.41 40.091 39.8687 39.6379 40.1837 39.0895C40.3385 38.8201 40.455 38.4838 40.5595 37.9364C40.6659 37.3786 40.7487 36.6673 40.8658 35.6536L41.0521 33.8067C41.1038 33.2941 41.5625 32.9203 42.0767 32.9718C42.5909 33.0234 42.9658 33.4807 42.9141 33.9933L42.7264 35.8536L42.7216 35.8956C42.6091 36.8695 42.5188 37.6508 42.3979 38.285C42.2732 38.9384 42.1055 39.498 41.8077 40.0166C41.3242 40.8584 40.6203 41.5535 39.7713 42.0278C39.2484 42.32 38.6854 42.4823 38.0284 42.6011C37.3907 42.7163 36.6055 42.7998 35.6265 42.9039L33.7156 43.107C33.2017 43.1616 32.7408 42.7906 32.686 42.2783ZM15.3139 42.2783C15.3687 41.766 14.9965 41.3065 14.4827 41.2518L12.6072 41.0525C11.5847 40.9438 10.8677 40.867 10.3053 40.7654C9.75452 40.6658 9.41562 40.5524 9.14342 40.4003C8.58982 40.091 8.13112 39.6379 7.81622 39.0895C7.66142 38.8201 7.54482 38.4838 7.44042 37.9364C7.33402 37.3786 7.25112 36.6673 7.13402 35.6536L6.94782 33.8067C6.89612 33.2941 6.43732 32.9203 5.92322 32.9718C5.40902 33.0234 5.03412 33.4807 5.08582 33.9933L5.27352 35.8536L5.27832 35.8956C5.39082 36.8695 5.48102 37.6508 5.60202 38.285C5.72672 38.9384 5.89442 39.498 6.19222 40.0166C6.67572 40.8584 7.37962 41.5535 8.22862 42.0278C8.75152 42.32 9.31452 42.4823 9.97152 42.6011C10.6092 42.7163 11.3944 42.7998 12.3733 42.9038L14.2843 43.107C14.7982 43.1616 15.2591 42.7906 15.3139 42.2783ZM14.8033 17.0561C14.3587 17.0561 13.9982 17.4166 13.9982 17.8612V30.9107C13.9982 31.3554 14.3587 31.7158 14.8033 31.7158H17.3524C17.797 31.7158 18.1575 31.3554 18.1575 30.9107V17.8612C18.1575 17.4166 17.797 17.0561 17.3524 17.0561H14.8033ZM21.6951 17.0561C21.2505 17.0561 20.89 17.4166 20.89 17.8612V30.9107C20.89 31.3554 21.2505 31.7158 21.6951 31.7158H27.8431C29.4536 31.7158 30.882 31.4156 32.1284 30.8153C33.3747 30.2149 34.341 29.3633 35.0272 28.2603C35.7134 27.1573 36.0565 25.8659 36.0565 24.386C36.0565 22.906 35.7134 21.6146 35.0272 20.5116C34.341 19.4086 33.3747 18.557 32.1284 17.9566C30.882 17.3563 29.4536 17.0561 27.8431 17.0561H21.6951ZM30.6999 27.3388C29.9437 28.0509 28.9354 28.4069 27.675 28.4069H25.2908C25.1574 28.4069 25.0493 28.2988 25.0493 28.1654V20.6065C25.0493 20.4732 25.1574 20.365 25.2908 20.365H27.675C28.9354 20.365 29.9437 20.721 30.6999 21.4331C31.4702 22.1451 31.8553 23.1294 31.8553 24.386C31.8553 25.6425 31.4702 26.6268 30.6999 27.3388Z" fill="url(#paint0_linear_76_1980)"/>
<defs>
<linearGradient id="paint0_linear_76_1980" x1="14.1767" y1="17.9422" x2="27.1125" y2="36.8004" gradientUnits="userSpaceOnUse">
<stop stop-color="#CC5CDC"/>
<stop offset="0.244792" stop-color="#7B66FF"/>
<stop offset="0.520833" stop-color="#1F8AF0"/>
<stop offset="0.760417" stop-color="#00D1FF"/>
<stop offset="1" stop-color="#3DEDD7"/>
</linearGradient>
</defs>
</svg>
