<svg width="21" height="24" viewBox="0 0 21 24" fill="none" xmlns="http://www.w3.org/2000/svg">
<path d="M8.92881 2.3908C9.26815 2.19492 9.65308 2.0918 10.0449 2.0918C10.4368 2.0918 10.8217 2.19492 11.161 2.3908L18.5954 6.68193C18.9348 6.8778 19.2166 7.15952 19.4125 7.49879C19.6084 7.83805 19.7115 8.22289 19.7116 8.61464V17.1963C19.7116 17.5882 19.6085 17.9731 19.4126 18.3125C19.2167 18.6519 18.9349 18.9337 18.5954 19.1296L11.161 23.4202C10.8217 23.6161 10.4368 23.7192 10.0449 23.7192C9.65308 23.7192 9.26815 23.6161 8.92881 23.4202L1.49551 19.1296C1.15609 18.9337 0.874253 18.6519 0.67833 18.3125C0.482408 17.9731 0.379307 17.5882 0.379395 17.1963V8.61519C0.379307 8.22335 0.482408 7.83839 0.67833 7.49903C0.874253 7.15966 1.15609 6.87785 1.49551 6.68193L8.92881 2.3908Z" fill="#78A105"/>
<path d="M8.92881 0.648609C9.26815 0.452731 9.65308 0.349609 10.0449 0.349609C10.4368 0.349609 10.8217 0.452731 11.161 0.648609L18.5954 4.93918C18.9348 5.13505 19.2166 5.41678 19.4125 5.75604C19.6084 6.0953 19.7115 6.48014 19.7116 6.87189V15.4541C19.7115 15.8459 19.6084 16.2307 19.4125 16.57C19.2166 16.9093 18.9348 17.191 18.5954 17.3869L11.161 21.6774C10.8217 21.8733 10.4368 21.9764 10.0449 21.9764C9.65308 21.9764 9.26815 21.8733 8.92881 21.6774L1.49551 17.3869C1.15609 17.1909 0.874253 16.9091 0.67833 16.5698C0.482408 16.2304 0.379307 15.8454 0.379395 15.4536V6.87245C0.379307 6.48061 0.482408 6.09565 0.67833 5.75628C0.874253 5.41691 1.15609 5.1351 1.49551 4.93918L8.92881 0.648609Z" fill="#95C901"/>
<path opacity="0.45" fill-rule="evenodd" clip-rule="evenodd" d="M11.2539 2.51652C10.9209 2.33023 10.5457 2.23242 10.1641 2.23242C9.78245 2.23242 9.40722 2.33023 9.07418 2.51652L3.37476 5.70404C3.02832 5.89782 2.73984 6.18046 2.53904 6.52284C2.33825 6.86521 2.2324 7.25492 2.23242 7.65181V8.98641C2.40312 8.44284 2.77528 7.98512 3.27264 7.70705L11.0145 3.37686C11.4052 3.1583 11.8526 3.06226 12.2986 3.10124L11.2539 2.51652Z" fill="white"/>
<path d="M5.02246 13.3962C5.02246 13.741 5.30261 13.9525 5.56657 13.9525C5.83108 13.9525 5.98678 13.8353 6.14973 13.6233L7.40926 11.9701L8.68442 13.6551C8.83231 13.8504 8.98019 13.9525 9.2369 13.9525C9.57843 13.9525 9.82732 13.6941 9.82732 13.3571C9.82732 13.1842 9.74194 13.028 9.64874 12.9102L8.18664 11.1003L9.57061 9.39185C9.68781 9.24288 9.74919 9.10172 9.74919 8.92931C9.75015 8.85708 9.73684 8.78536 9.71002 8.71827C9.6832 8.65119 9.6434 8.59006 9.59291 8.53838C9.54241 8.4867 9.48221 8.4455 9.41576 8.41712C9.3493 8.38875 9.2779 8.37377 9.20565 8.37305C8.94113 8.37305 8.78543 8.49021 8.62248 8.70223L7.44052 10.2695L6.25074 8.67099C6.10341 8.47515 5.95497 8.37305 5.69882 8.37305C5.35674 8.37305 5.10784 8.63137 5.10784 8.96837C5.10784 9.14133 5.19378 9.29756 5.28642 9.41528L6.6704 11.1159L5.20104 12.9337C5.0844 13.0826 5.02246 13.2238 5.02246 13.3962ZM10.7604 13.3493C10.7604 13.6863 11.0243 13.9525 11.3586 13.9525C11.6935 13.9525 11.9574 13.6863 11.9574 13.3493V12.2597H12.867C14.0881 12.2597 15.0675 11.6013 15.0675 10.332V10.3164C15.0675 9.19601 14.2823 8.41991 12.9837 8.41991H11.3586C11.0243 8.41991 10.7604 8.68661 10.7604 9.02361V13.3493ZM11.9574 11.1862V9.50902H12.8827C13.4815 9.50902 13.8548 9.79915 13.8548 10.3403V10.3554C13.8548 10.8258 13.5049 11.1867 12.9061 11.1867L11.9574 11.1862Z" fill="white"/>
</svg>
