<svg width="18" height="16" viewBox="0 0 18 16" fill="none" xmlns="http://www.w3.org/2000/svg">
<g clip-path="url(#clip0_76_3246)">
<path d="M4.74888 1.10932C4.71096 1.07436 4.6659 1.04662 4.61629 1.02769C4.56667 1.00877 4.51348 0.999023 4.45975 0.999023C4.40603 0.999023 4.35284 1.00877 4.30322 1.02769C4.2536 1.04662 4.20854 1.07436 4.17062 1.10932L2.00451 3.08776L1.23236 2.39651C1.19444 2.36155 1.14938 2.33381 1.09976 2.31488C1.05015 2.29595 0.996954 2.28621 0.943231 2.28621C0.889508 2.28621 0.836314 2.29595 0.786698 2.31488C0.737082 2.33381 0.692021 2.36155 0.6541 2.39651L0.120056 2.88776C0.0820026 2.9226 0.051809 2.96399 0.031207 3.00957C0.0106051 3.05516 0 3.10403 0 3.15338C0 3.20274 0.0106051 3.25161 0.031207 3.29719C0.051809 3.34277 0.0820026 3.38417 0.120056 3.41901L1.73885 4.90026C1.81966 4.97082 1.92688 5.01017 2.03836 5.01017C2.14984 5.01017 2.25706 4.97082 2.33787 4.90026L2.86817 4.41213L5.32409 2.15619C5.40061 2.08584 5.44384 1.9906 5.44442 1.89115C5.44499 1.79169 5.40285 1.69604 5.32715 1.62494L4.74888 1.10932ZM4.74888 6.08401C4.71096 6.04905 4.6659 6.02131 4.61629 6.00238C4.56667 5.98345 4.51348 5.97371 4.45975 5.97371C4.40603 5.97371 4.35284 5.98345 4.30322 6.00238C4.2536 6.02131 4.20854 6.04905 4.17062 6.08401L2.00451 8.07526L1.23236 7.38463C1.19444 7.34967 1.14938 7.32193 1.09976 7.30301C1.05015 7.28408 0.996954 7.27434 0.943231 7.27434C0.889508 7.27434 0.836314 7.28408 0.786698 7.30301C0.737082 7.32193 0.692021 7.34967 0.6541 7.38463L0.120056 7.87494C0.0820026 7.90978 0.051809 7.95118 0.031207 7.99676C0.0106051 8.04234 0 8.09121 0 8.14057C0 8.18992 0.0106051 8.23879 0.031207 8.28438C0.051809 8.32996 0.0820026 8.37136 0.120056 8.40619L1.73477 9.89057C1.81552 9.96111 1.92268 10.0005 2.03411 10.0005C2.14553 10.0005 2.2527 9.96111 2.33344 9.89057L2.86749 9.40026L5.32341 7.14338C5.39963 7.07352 5.44273 6.97882 5.4433 6.8799C5.44387 6.78098 5.40188 6.68586 5.32647 6.61526L4.74888 6.08401ZM2.17697 11.4999C1.2759 11.4999 0.52416 12.1718 0.52416 12.9999C0.52416 13.8281 1.27658 14.4999 2.17697 14.4999C2.61 14.4999 3.0253 14.3419 3.3315 14.0606C3.6377 13.7793 3.80972 13.3978 3.80972 12.9999C3.80972 12.6021 3.6377 12.2206 3.3315 11.9393C3.0253 11.658 2.61 11.4999 2.17697 11.4999ZM16.8717 11.9999H7.0752C6.93086 11.9999 6.79243 12.0526 6.69036 12.1464C6.5883 12.2402 6.53096 12.3673 6.53096 12.4999V13.4999C6.53096 13.6326 6.5883 13.7597 6.69036 13.8535C6.79243 13.9473 6.93086 13.9999 7.0752 13.9999H16.8717C17.016 13.9999 17.1544 13.9473 17.2565 13.8535C17.3586 13.7597 17.4159 13.6326 17.4159 13.4999V12.4999C17.4159 12.3673 17.3586 12.2402 17.2565 12.1464C17.1544 12.0526 17.016 11.9999 16.8717 11.9999ZM16.8717 1.99994H7.0752C6.93086 1.99994 6.79243 2.05262 6.69036 2.14639C6.5883 2.24016 6.53096 2.36734 6.53096 2.49994V3.49994C6.53096 3.63255 6.5883 3.75973 6.69036 3.8535C6.79243 3.94727 6.93086 3.99994 7.0752 3.99994H16.8717C17.016 3.99994 17.1544 3.94727 17.2565 3.8535C17.3586 3.75973 17.4159 3.63255 17.4159 3.49994V2.49994C17.4159 2.36734 17.3586 2.24016 17.2565 2.14639C17.1544 2.05262 17.016 1.99994 16.8717 1.99994ZM16.8717 6.99994H7.0752C6.93086 6.99994 6.79243 7.05262 6.69036 7.14639C6.5883 7.24016 6.53096 7.36734 6.53096 7.49994V8.49994C6.53096 8.63255 6.5883 8.75973 6.69036 8.8535C6.79243 8.94727 6.93086 8.99994 7.0752 8.99994H16.8717C17.016 8.99994 17.1544 8.94727 17.2565 8.8535C17.3586 8.75973 17.4159 8.63255 17.4159 8.49994V7.49994C17.4159 7.36734 17.3586 7.24016 17.2565 7.14639C17.1544 7.05262 17.016 6.99994 16.8717 6.99994Z" fill="white"/>
</g>
<defs>
<clipPath id="clip0_76_3246">
<rect width="17.4159" height="16" fill="white"/>
</clipPath>
</defs>
</svg>
